<?xml version="1.0" encoding="utf-8" standalone="no"?>
<!DOCTYPE svg PUBLIC "-//W3C//DTD SVG 1.1//EN"
  "http://www.w3.org/Graphics/SVG/1.1/DTD/svg11.dtd">
<!-- Created with matplotlib (http://matplotlib.org/) -->
<svg height="352.699375pt" version="1.1" viewBox="0 0 507.217031 352.699375" width="507.217031pt" xmlns="http://www.w3.org/2000/svg" xmlns:xlink="http://www.w3.org/1999/xlink">
 <defs>
  <style type="text/css">
*{stroke-linecap:butt;stroke-linejoin:round;}
  </style>
 </defs>
 <g id="figure_1">
  <g id="patch_1">
   <path d="M 0 352.699375 
L 507.217031 352.699375 
L 507.217031 0 
L 0 0 
z
" style="fill:#ffffff;"/>
  </g>
  <g id="axes_1">
   <g id="patch_2">
    <path d="M 48.982813 196.668125 
L 386.785937 196.668125 
L 386.785937 22.318125 
L 48.982813 22.318125 
z
" style="fill:#ffffff;"/>
   </g>
   <g id="patch_3">
    <path clip-path="url(#p36fa466e01)" d="M 190.642187 114.941562 
C 192.08713 114.941562 193.473086 114.367481 194.494815 113.345752 
C 195.516543 112.324023 196.090625 110.938068 196.090625 109.493125 
C 196.090625 108.048182 195.516543 106.662227 194.494815 105.640498 
C 193.473086 104.618769 192.08713 104.044687 190.642187 104.044687 
C 189.197245 104.044687 187.811289 104.618769 186.78956 105.640498 
C 185.767832 106.662227 185.19375 108.048182 185.19375 109.493125 
C 185.19375 110.938068 185.767832 112.324023 186.78956 113.345752 
C 187.811289 114.367481 189.197245 114.941562 190.642187 114.941562 
z
" style="fill:none;stroke:#000000;stroke-linejoin:miter;stroke-width:2;"/>
   </g>
   <g id="patch_4">
    <path clip-path="url(#p36fa466e01)" d="M 190.642187 93.147812 
C 192.08713 93.147812 193.473086 92.573731 194.494815 91.552002 
C 195.516543 90.530273 196.090625 89.144318 196.090625 87.699375 
C 196.090625 86.254432 195.516543 84.868477 194.494815 83.846748 
C 193.473086 82.825019 192.08713 82.250937 190.642187 82.250937 
C 189.197245 82.250937 187.811289 82.825019 186.78956 83.846748 
C 185.767832 84.868477 185.19375 86.254432 185.19375 87.699375 
C 185.19375 89.144318 185.767832 90.530273 186.78956 91.552002 
C 187.811289 92.573731 189.197245 93.147812 190.642187 93.147812 
z
" style="fill:none;stroke:#000000;stroke-linejoin:miter;stroke-width:2;"/>
   </g>
   <g id="patch_5">
    <path clip-path="url(#p36fa466e01)" d="M 190.642187 71.354062 
C 192.08713 71.354062 193.473086 70.779981 194.494815 69.758252 
C 195.516543 68.736523 196.090625 67.350568 196.090625 65.905625 
C 196.090625 64.460682 195.516543 63.074727 194.494815 62.052998 
C 193.473086 61.031269 192.08713 60.457187 190.642187 60.457187 
C 189.197245 60.457187 187.811289 61.031269 186.78956 62.052998 
C 185.767832 63.074727 185.19375 64.460682 185.19375 65.905625 
C 185.19375 67.350568 185.767832 68.736523 186.78956 69.758252 
C 187.811289 70.779981 189.197245 71.354062 190.642187 71.354062 
z
" style="fill:none;stroke:#000000;stroke-linejoin:miter;stroke-width:2;"/>
   </g>
   <g id="matplotlib.axis_1">
    <g id="xtick_1">
     <g id="line2d_1">
      <defs>
       <path d="M 0 0 
L 0 3.5 
" id="m9692e02bef" style="stroke:#000000;stroke-width:0.8;"/>
      </defs>
      <g>
       <use style="stroke:#000000;stroke-width:0.8;" x="59.879688" xlink:href="#m9692e02bef" y="196.668125"/>
      </g>
     </g>
     <g id="text_1">
      <!-- 0 -->
      <defs>
       <path d="M 31.78125 66.40625 
Q 24.171875 66.40625 20.328125 58.90625 
Q 16.5 51.421875 16.5 36.375 
Q 16.5 21.390625 20.328125 13.890625 
Q 24.171875 6.390625 31.78125 6.390625 
Q 39.453125 6.390625 43.28125 13.890625 
Q 47.125 21.390625 47.125 36.375 
Q 47.125 51.421875 43.28125 58.90625 
Q 39.453125 66.40625 31.78125 66.40625 
z
M 31.78125 74.21875 
Q 44.046875 74.21875 50.515625 64.515625 
Q 56.984375 54.828125 56.984375 36.375 
Q 56.984375 17.96875 50.515625 8.265625 
Q 44.046875 -1.421875 31.78125 -1.421875 
Q 19.53125 -1.421875 13.0625 8.265625 
Q 6.59375 17.96875 6.59375 36.375 
Q 6.59375 54.828125 13.0625 64.515625 
Q 19.53125 74.21875 31.78125 74.21875 
z
" id="DejaVuSans-30"/>
      </defs>
      <g transform="translate(56.698438 211.266562)scale(0.1 -0.1)">
       <use xlink:href="#DejaVuSans-30"/>
      </g>
     </g>
    </g>
    <g id="xtick_2">
     <g id="line2d_2">
      <g>
       <use style="stroke:#000000;stroke-width:0.8;" x="114.364062" xlink:href="#m9692e02bef" y="196.668125"/>
      </g>
     </g>
     <g id="text_2">
      <!-- 5 -->
      <defs>
       <path d="M 10.796875 72.90625 
L 49.515625 72.90625 
L 49.515625 64.59375 
L 19.828125 64.59375 
L 19.828125 46.734375 
Q 21.96875 47.46875 24.109375 47.828125 
Q 26.265625 48.1875 28.421875 48.1875 
Q 40.625 48.1875 47.75 41.5 
Q 54.890625 34.8125 54.890625 23.390625 
Q 54.890625 11.625 47.5625 5.09375 
Q 40.234375 -1.421875 26.90625 -1.421875 
Q 22.3125 -1.421875 17.546875 -0.640625 
Q 12.796875 0.140625 7.71875 1.703125 
L 7.71875 11.625 
Q 12.109375 9.234375 16.796875 8.0625 
Q 21.484375 6.890625 26.703125 6.890625 
Q 35.15625 6.890625 40.078125 11.328125 
Q 45.015625 15.765625 45.015625 23.390625 
Q 45.015625 31 40.078125 35.4375 
Q 35.15625 39.890625 26.703125 39.890625 
Q 22.75 39.890625 18.8125 39.015625 
Q 14.890625 38.140625 10.796875 36.28125 
z
" id="DejaVuSans-35"/>
      </defs>
      <g transform="translate(111.182812 211.266562)scale(0.1 -0.1)">
       <use xlink:href="#DejaVuSans-35"/>
      </g>
     </g>
    </g>
    <g id="xtick_3">
     <g id="line2d_3">
      <g>
       <use style="stroke:#000000;stroke-width:0.8;" x="168.848437" xlink:href="#m9692e02bef" y="196.668125"/>
      </g>
     </g>
     <g id="text_3">
      <!-- 10 -->
      <defs>
       <path d="M 12.40625 8.296875 
L 28.515625 8.296875 
L 28.515625 63.921875 
L 10.984375 60.40625 
L 10.984375 69.390625 
L 28.421875 72.90625 
L 38.28125 72.90625 
L 38.28125 8.296875 
L 54.390625 8.296875 
L 54.390625 0 
L 12.40625 0 
z
" id="DejaVuSans-31"/>
      </defs>
      <g transform="translate(162.485937 211.266562)scale(0.1 -0.1)">
       <use xlink:href="#DejaVuSans-31"/>
       <use x="63.623047" xlink:href="#DejaVuSans-30"/>
      </g>
     </g>
    </g>
    <g id="xtick_4">
     <g id="line2d_4">
      <g>
       <use style="stroke:#000000;stroke-width:0.8;" x="223.332812" xlink:href="#m9692e02bef" y="196.668125"/>
      </g>
     </g>
     <g id="text_4">
      <!-- 15 -->
      <g transform="translate(216.970312 211.266562)scale(0.1 -0.1)">
       <use xlink:href="#DejaVuSans-31"/>
       <use x="63.623047" xlink:href="#DejaVuSans-35"/>
      </g>
     </g>
    </g>
    <g id="xtick_5">
     <g id="line2d_5">
      <g>
       <use style="stroke:#000000;stroke-width:0.8;" x="277.817187" xlink:href="#m9692e02bef" y="196.668125"/>
      </g>
     </g>
     <g id="text_5">
      <!-- 20 -->
      <defs>
       <path d="M 19.1875 8.296875 
L 53.609375 8.296875 
L 53.609375 0 
L 7.328125 0 
L 7.328125 8.296875 
Q 12.9375 14.109375 22.625 23.890625 
Q 32.328125 33.6875 34.8125 36.53125 
Q 39.546875 41.84375 41.421875 45.53125 
Q 43.3125 49.21875 43.3125 52.78125 
Q 43.3125 58.59375 39.234375 62.25 
Q 35.15625 65.921875 28.609375 65.921875 
Q 23.96875 65.921875 18.8125 64.3125 
Q 13.671875 62.703125 7.8125 59.421875 
L 7.8125 69.390625 
Q 13.765625 71.78125 18.9375 73 
Q 24.125 74.21875 28.421875 74.21875 
Q 39.75 74.21875 46.484375 68.546875 
Q 53.21875 62.890625 53.21875 53.421875 
Q 53.21875 48.921875 51.53125 44.890625 
Q 49.859375 40.875 45.40625 35.40625 
Q 44.1875 33.984375 37.640625 27.21875 
Q 31.109375 20.453125 19.1875 8.296875 
z
" id="DejaVuSans-32"/>
      </defs>
      <g transform="translate(271.454687 211.266562)scale(0.1 -0.1)">
       <use xlink:href="#DejaVuSans-32"/>
       <use x="63.623047" xlink:href="#DejaVuSans-30"/>
      </g>
     </g>
    </g>
    <g id="xtick_6">
     <g id="line2d_6">
      <g>
       <use style="stroke:#000000;stroke-width:0.8;" x="332.301562" xlink:href="#m9692e02bef" y="196.668125"/>
      </g>
     </g>
     <g id="text_6">
      <!-- 25 -->
      <g transform="translate(325.939062 211.266562)scale(0.1 -0.1)">
       <use xlink:href="#DejaVuSans-32"/>
       <use x="63.623047" xlink:href="#DejaVuSans-35"/>
      </g>
     </g>
    </g>
    <g id="xtick_7">
     <g id="line2d_7">
      <g>
       <use style="stroke:#000000;stroke-width:0.8;" x="386.785937" xlink:href="#m9692e02bef" y="196.668125"/>
      </g>
     </g>
     <g id="text_7">
      <!-- 30 -->
      <defs>
       <path d="M 40.578125 39.3125 
Q 47.65625 37.796875 51.625 33 
Q 55.609375 28.21875 55.609375 21.1875 
Q 55.609375 10.40625 48.1875 4.484375 
Q 40.765625 -1.421875 27.09375 -1.421875 
Q 22.515625 -1.421875 17.65625 -0.515625 
Q 12.796875 0.390625 7.625 2.203125 
L 7.625 11.71875 
Q 11.71875 9.328125 16.59375 8.109375 
Q 21.484375 6.890625 26.8125 6.890625 
Q 36.078125 6.890625 40.9375 10.546875 
Q 45.796875 14.203125 45.796875 21.1875 
Q 45.796875 27.640625 41.28125 31.265625 
Q 36.765625 34.90625 28.71875 34.90625 
L 20.21875 34.90625 
L 20.21875 43.015625 
L 29.109375 43.015625 
Q 36.375 43.015625 40.234375 45.921875 
Q 44.09375 48.828125 44.09375 54.296875 
Q 44.09375 59.90625 40.109375 62.90625 
Q 36.140625 65.921875 28.71875 65.921875 
Q 24.65625 65.921875 20.015625 65.03125 
Q 15.375 64.15625 9.8125 62.3125 
L 9.8125 71.09375 
Q 15.4375 72.65625 20.34375 73.4375 
Q 25.25 74.21875 29.59375 74.21875 
Q 40.828125 74.21875 47.359375 69.109375 
Q 53.90625 64.015625 53.90625 55.328125 
Q 53.90625 49.265625 50.4375 45.09375 
Q 46.96875 40.921875 40.578125 39.3125 
z
" id="DejaVuSans-33"/>
      </defs>
      <g transform="translate(380.423437 211.266562)scale(0.1 -0.1)">
       <use xlink:href="#DejaVuSans-33"/>
       <use x="63.623047" xlink:href="#DejaVuSans-30"/>
      </g>
     </g>
    </g>
   </g>
   <g id="matplotlib.axis_2">
    <g id="ytick_1">
     <g id="line2d_8">
      <defs>
       <path d="M 0 0 
L -3.5 0 
" id="mf28fe56542" style="stroke:#000000;stroke-width:0.8;"/>
      </defs>
      <g>
       <use style="stroke:#000000;stroke-width:0.8;" x="48.982813" xlink:href="#mf28fe56542" y="196.668125"/>
      </g>
     </g>
     <g id="text_8">
      <!-- −10 -->
      <defs>
       <path d="M 10.59375 35.5 
L 73.1875 35.5 
L 73.1875 27.203125 
L 10.59375 27.203125 
z
" id="DejaVuSans-2212"/>
      </defs>
      <g transform="translate(20.878125 200.467344)scale(0.1 -0.1)">
       <use xlink:href="#DejaVuSans-2212"/>
       <use x="83.789062" xlink:href="#DejaVuSans-31"/>
       <use x="147.412109" xlink:href="#DejaVuSans-30"/>
      </g>
     </g>
    </g>
    <g id="ytick_2">
     <g id="line2d_9">
      <g>
       <use style="stroke:#000000;stroke-width:0.8;" x="48.982813" xlink:href="#mf28fe56542" y="174.874375"/>
      </g>
     </g>
     <g id="text_9">
      <!-- −8 -->
      <defs>
       <path d="M 31.78125 34.625 
Q 24.75 34.625 20.71875 30.859375 
Q 16.703125 27.09375 16.703125 20.515625 
Q 16.703125 13.921875 20.71875 10.15625 
Q 24.75 6.390625 31.78125 6.390625 
Q 38.8125 6.390625 42.859375 10.171875 
Q 46.921875 13.96875 46.921875 20.515625 
Q 46.921875 27.09375 42.890625 30.859375 
Q 38.875 34.625 31.78125 34.625 
z
M 21.921875 38.8125 
Q 15.578125 40.375 12.03125 44.71875 
Q 8.5 49.078125 8.5 55.328125 
Q 8.5 64.0625 14.71875 69.140625 
Q 20.953125 74.21875 31.78125 74.21875 
Q 42.671875 74.21875 48.875 69.140625 
Q 55.078125 64.0625 55.078125 55.328125 
Q 55.078125 49.078125 51.53125 44.71875 
Q 48 40.375 41.703125 38.8125 
Q 48.828125 37.15625 52.796875 32.3125 
Q 56.78125 27.484375 56.78125 20.515625 
Q 56.78125 9.90625 50.3125 4.234375 
Q 43.84375 -1.421875 31.78125 -1.421875 
Q 19.734375 -1.421875 13.25 4.234375 
Q 6.78125 9.90625 6.78125 20.515625 
Q 6.78125 27.484375 10.78125 32.3125 
Q 14.796875 37.15625 21.921875 38.8125 
z
M 18.3125 54.390625 
Q 18.3125 48.734375 21.84375 45.5625 
Q 25.390625 42.390625 31.78125 42.390625 
Q 38.140625 42.390625 41.71875 45.5625 
Q 45.3125 48.734375 45.3125 54.390625 
Q 45.3125 60.0625 41.71875 63.234375 
Q 38.140625 66.40625 31.78125 66.40625 
Q 25.390625 66.40625 21.84375 63.234375 
Q 18.3125 60.0625 18.3125 54.390625 
z
" id="DejaVuSans-38"/>
      </defs>
      <g transform="translate(27.240625 178.673594)scale(0.1 -0.1)">
       <use xlink:href="#DejaVuSans-2212"/>
       <use x="83.789062" xlink:href="#DejaVuSans-38"/>
      </g>
     </g>
    </g>
    <g id="ytick_3">
     <g id="line2d_10">
      <g>
       <use style="stroke:#000000;stroke-width:0.8;" x="48.982813" xlink:href="#mf28fe56542" y="153.080625"/>
      </g>
     </g>
     <g id="text_10">
      <!-- −6 -->
      <defs>
       <path d="M 33.015625 40.375 
Q 26.375 40.375 22.484375 35.828125 
Q 18.609375 31.296875 18.609375 23.390625 
Q 18.609375 15.53125 22.484375 10.953125 
Q 26.375 6.390625 33.015625 6.390625 
Q 39.65625 6.390625 43.53125 10.953125 
Q 47.40625 15.53125 47.40625 23.390625 
Q 47.40625 31.296875 43.53125 35.828125 
Q 39.65625 40.375 33.015625 40.375 
z
M 52.59375 71.296875 
L 52.59375 62.3125 
Q 48.875 64.0625 45.09375 64.984375 
Q 41.3125 65.921875 37.59375 65.921875 
Q 27.828125 65.921875 22.671875 59.328125 
Q 17.53125 52.734375 16.796875 39.40625 
Q 19.671875 43.65625 24.015625 45.921875 
Q 28.375 48.1875 33.59375 48.1875 
Q 44.578125 48.1875 50.953125 41.515625 
Q 57.328125 34.859375 57.328125 23.390625 
Q 57.328125 12.15625 50.6875 5.359375 
Q 44.046875 -1.421875 33.015625 -1.421875 
Q 20.359375 -1.421875 13.671875 8.265625 
Q 6.984375 17.96875 6.984375 36.375 
Q 6.984375 53.65625 15.1875 63.9375 
Q 23.390625 74.21875 37.203125 74.21875 
Q 40.921875 74.21875 44.703125 73.484375 
Q 48.484375 72.75 52.59375 71.296875 
z
" id="DejaVuSans-36"/>
      </defs>
      <g transform="translate(27.240625 156.879844)scale(0.1 -0.1)">
       <use xlink:href="#DejaVuSans-2212"/>
       <use x="83.789062" xlink:href="#DejaVuSans-36"/>
      </g>
     </g>
    </g>
    <g id="ytick_4">
     <g id="line2d_11">
      <g>
       <use style="stroke:#000000;stroke-width:0.8;" x="48.982813" xlink:href="#mf28fe56542" y="131.286875"/>
      </g>
     </g>
     <g id="text_11">
      <!-- −4 -->
      <defs>
       <path d="M 37.796875 64.3125 
L 12.890625 25.390625 
L 37.796875 25.390625 
z
M 35.203125 72.90625 
L 47.609375 72.90625 
L 47.609375 25.390625 
L 58.015625 25.390625 
L 58.015625 17.1875 
L 47.609375 17.1875 
L 47.609375 0 
L 37.796875 0 
L 37.796875 17.1875 
L 4.890625 17.1875 
L 4.890625 26.703125 
z
" id="DejaVuSans-34"/>
      </defs>
      <g transform="translate(27.240625 135.086094)scale(0.1 -0.1)">
       <use xlink:href="#DejaVuSans-2212"/>
       <use x="83.789062" xlink:href="#DejaVuSans-34"/>
      </g>
     </g>
    </g>
    <g id="ytick_5">
     <g id="line2d_12">
      <g>
       <use style="stroke:#000000;stroke-width:0.8;" x="48.982813" xlink:href="#mf28fe56542" y="109.493125"/>
      </g>
     </g>
     <g id="text_12">
      <!-- −2 -->
      <g transform="translate(27.240625 113.292344)scale(0.1 -0.1)">
       <use xlink:href="#DejaVuSans-2212"/>
       <use x="83.789062" xlink:href="#DejaVuSans-32"/>
      </g>
     </g>
    </g>
    <g id="ytick_6">
     <g id="line2d_13">
      <g>
       <use style="stroke:#000000;stroke-width:0.8;" x="48.982813" xlink:href="#mf28fe56542" y="87.699375"/>
      </g>
     </g>
     <g id="text_13">
      <!-- 0 -->
      <g transform="translate(35.620312 91.498594)scale(0.1 -0.1)">
       <use xlink:href="#DejaVuSans-30"/>
      </g>
     </g>
    </g>
    <g id="ytick_7">
     <g id="line2d_14">
      <g>
       <use style="stroke:#000000;stroke-width:0.8;" x="48.982813" xlink:href="#mf28fe56542" y="65.905625"/>
      </g>
     </g>
     <g id="text_14">
      <!-- 2 -->
      <g transform="translate(35.620312 69.704844)scale(0.1 -0.1)">
       <use xlink:href="#DejaVuSans-32"/>
      </g>
     </g>
    </g>
    <g id="ytick_8">
     <g id="line2d_15">
      <g>
       <use style="stroke:#000000;stroke-width:0.8;" x="48.982813" xlink:href="#mf28fe56542" y="44.111875"/>
      </g>
     </g>
     <g id="text_15">
      <!-- 4 -->
      <g transform="translate(35.620312 47.911094)scale(0.1 -0.1)">
       <use xlink:href="#DejaVuSans-34"/>
      </g>
     </g>
    </g>
    <g id="ytick_9">
     <g id="line2d_16">
      <g>
       <use style="stroke:#000000;stroke-width:0.8;" x="48.982813" xlink:href="#mf28fe56542" y="22.318125"/>
      </g>
     </g>
     <g id="text_16">
      <!-- 6 -->
      <g transform="translate(35.620312 26.117344)scale(0.1 -0.1)">
       <use xlink:href="#DejaVuSans-36"/>
      </g>
     </g>
    </g>
    <g id="text_17">
     <!-- y -->
     <defs>
      <path d="M 32.171875 -5.078125 
Q 28.375 -14.84375 24.75 -17.8125 
Q 21.140625 -20.796875 15.09375 -20.796875 
L 7.90625 -20.796875 
L 7.90625 -13.28125 
L 13.1875 -13.28125 
Q 16.890625 -13.28125 18.9375 -11.515625 
Q 21 -9.765625 23.484375 -3.21875 
L 25.09375 0.875 
L 2.984375 54.6875 
L 12.5 54.6875 
L 29.59375 11.921875 
L 46.6875 54.6875 
L 56.203125 54.6875 
z
" id="DejaVuSans-79"/>
     </defs>
     <g transform="translate(14.798438 112.4525)rotate(-90)scale(0.1 -0.1)">
      <use xlink:href="#DejaVuSans-79"/>
     </g>
    </g>
   </g>
   <g id="LineCollection_1">
    <path clip-path="url(#p36fa466e01)" d="M 119.8125 125.838437 
L 119.8125 49.560312 
" style="fill:none;stroke:#000000;stroke-width:1.5;"/>
    <path clip-path="url(#p36fa466e01)" d="M 130.709375 125.838437 
L 130.709375 49.560312 
" style="fill:none;stroke:#000000;stroke-width:1.5;"/>
   </g>
   <g id="LineCollection_2">
    <path clip-path="url(#p36fa466e01)" d="M 119.8125 49.560312 
L 130.709375 49.560312 
" style="fill:none;stroke:#000000;stroke-width:1.5;"/>
    <path clip-path="url(#p36fa466e01)" d="M 119.8125 125.838437 
L 130.709375 125.838437 
" style="fill:none;stroke:#000000;stroke-width:1.5;"/>
   </g>
   <g id="line2d_17">
    <path clip-path="url(#p36fa466e01)" d="M 59.265639 87.742786 
L 63.38844 87.734221 
L 74.415603 87.59023 
L 99.434818 87.648383 
L 111.603591 88.12157 
L 119.77288 88.509451 
L 140.470828 89.671492 
L 157.92473 90.267799 
L 168.626359 90.357091 
L 168.502039 90.377742 
L 168.084672 90.116505 
L 167.358578 89.876551 
L 160.656379 88.558563 
L 157.887527 87.716866 
L 157.948674 87.657685 
L 159.563476 87.516303 
L 160.881523 87.592764 
L 162.511572 87.694578 
L 162.608197 87.586206 
L 162.590437 87.564719 
L 162.245992 87.527246 
L 161.477706 87.424596 
L 160.791726 87.345377 
L 160.776844 87.370911 
L 160.79026 87.167904 
L 161.110824 84.481774 
L 161.607836 80.791247 
L 162.077703 76.693993 
L 163.300652 68.822922 
L 163.751761 66.649566 
L 164.514123 64.412563 
L 165.565822 62.043129 
L 166.595561 59.803243 
L 170.562568 50.485521 
L 172.035623 47.947016 
L 173.284168 46.08138 
L 174.806814 44.149198 
L 176.581062 42.107598 
L 178.713183 40.071625 
L 181.226328 37.997295 
L 184.163137 36.029027 
L 187.508584 34.132168 
L 191.293708 32.446054 
L 193.360389 31.656039 
L 195.547515 30.988728 
L 197.838114 30.453562 
L 202.713626 29.656064 
L 205.280436 29.381126 
L 207.915481 29.21847 
L 213.423776 29.183864 
L 216.263181 29.330954 
L 219.121831 29.609217 
L 224.934864 30.478571 
L 227.862747 31.067609 
L 230.774439 31.77269 
L 236.598019 33.492281 
L 239.481112 34.516861 
L 242.310041 35.666313 
L 247.880482 38.272374 
L 253.323287 41.207411 
L 258.697296 44.437773 
L 263.991141 47.887914 
L 271.80974 53.33286 
L 282.066152 60.892041 
L 294.791574 70.616722 
L 307.59001 80.377517 
L 315.398612 86.103916 
L 315.398612 86.103916 
" style="fill:none;stroke:#008000;stroke-linecap:square;stroke-width:1.5;"/>
   </g>
   <g id="line2d_18">
    <path clip-path="url(#p36fa466e01)" d="M 52.554558 90.238177 
L 52.741987 90.775436 
L 53.305569 91.218172 
L 57.00583 93.836772 
L 59.639356 96.009552 
L 66.25942 101.643596 
L 72.451825 106.591979 
L 79.648056 112.000931 
L 87.84396 117.704671 
L 99.848261 126.037409 
L 109.374954 133.04327 
L 119.417045 140.854864 
L 136.212444 153.904981 
L 143.381725 159.072963 
L 147.091081 161.55833 
L 150.87713 163.95378 
L 154.711326 166.239802 
L 158.596068 168.407244 
L 162.580149 170.459886 
L 166.631165 172.384227 
L 170.716007 174.165101 
L 174.837128 175.796141 
L 179.053585 177.290157 
L 183.322024 178.640305 
L 187.598714 179.84008 
L 191.88219 180.886936 
L 196.231126 181.787512 
L 200.609159 182.531657 
L 204.973579 183.111275 
L 209.324406 183.527114 
L 213.732702 183.794761 
L 218.157489 183.89968 
L 222.546206 183.836652 
L 226.900285 183.615561 
L 231.282497 183.269338 
L 235.663149 182.792592 
L 240.350887 182.116785 
L 248.642013 180.531662 
L 253.312853 179.437512 
L 257.242864 178.370132 
L 261.464767 177.07528 
L 265.675883 175.661512 
L 269.844953 174.123834 
L 273.943377 172.456857 
L 281.986112 168.794962 
L 285.965007 166.831968 
L 289.894976 164.766679 
L 297.620918 160.350798 
L 301.42346 158.004481 
L 305.143468 155.534946 
L 312.652071 150.065189 
L 319.437968 144.735356 
L 326.433348 138.904454 
L 333.23026 132.648553 
L 336.553623 129.376748 
L 339.803203 126.003152 
L 346.088971 119.021198 
L 349.051937 115.511471 
L 351.767634 112.069171 
L 356.315994 105.729426 
L 358.132112 102.949615 
L 359.594983 100.45463 
L 361.594812 96.31369 
L 362.22586 94.676305 
L 363.672353 89.437855 
L 363.82335 88.105484 
L 363.674722 87.197982 
L 363.465301 86.766203 
L 362.546642 85.757744 
L 361.073151 84.790653 
L 358.792549 83.682891 
L 354.070829 81.866733 
L 350.000837 80.483351 
L 342.867492 78.382774 
L 340.353629 77.79106 
L 335.471227 76.969236 
L 333.185657 76.740083 
L 331.085857 76.687726 
L 327.404154 76.944069 
L 325.802258 77.191345 
L 323.215672 78.019511 
L 321.222805 78.997006 
L 319.8624 80.197172 
L 318.908928 81.50617 
L 318.389865 82.96208 
L 318.251152 83.708361 
L 318.251152 83.708361 
" style="fill:none;stroke:#ffa500;stroke-linecap:square;stroke-width:1.5;"/>
   </g>
   <g id="patch_6">
    <path d="M 48.982813 196.668125 
L 48.982813 22.318125 
" style="fill:none;stroke:#000000;stroke-linecap:square;stroke-linejoin:miter;stroke-width:0.8;"/>
   </g>
   <g id="patch_7">
    <path d="M 386.785937 196.668125 
L 386.785937 22.318125 
" style="fill:none;stroke:#000000;stroke-linecap:square;stroke-linejoin:miter;stroke-width:0.8;"/>
   </g>
   <g id="patch_8">
    <path d="M 48.982813 196.668125 
L 386.785937 196.668125 
" style="fill:none;stroke:#000000;stroke-linecap:square;stroke-linejoin:miter;stroke-width:0.8;"/>
   </g>
   <g id="patch_9">
    <path d="M 48.982813 22.318125 
L 386.785937 22.318125 
" style="fill:none;stroke:#000000;stroke-linecap:square;stroke-linejoin:miter;stroke-width:0.8;"/>
   </g>
   <g id="text_18">
    <!-- 3D - Scenario 2 - Flown Path -->
    <defs>
     <path d="M 19.671875 64.796875 
L 19.671875 8.109375 
L 31.59375 8.109375 
Q 46.6875 8.109375 53.6875 14.9375 
Q 60.6875 21.78125 60.6875 36.53125 
Q 60.6875 51.171875 53.6875 57.984375 
Q 46.6875 64.796875 31.59375 64.796875 
z
M 9.8125 72.90625 
L 30.078125 72.90625 
Q 51.265625 72.90625 61.171875 64.09375 
Q 71.09375 55.28125 71.09375 36.53125 
Q 71.09375 17.671875 61.125 8.828125 
Q 51.171875 0 30.078125 0 
L 9.8125 0 
z
" id="DejaVuSans-44"/>
     <path id="DejaVuSans-20"/>
     <path d="M 4.890625 31.390625 
L 31.203125 31.390625 
L 31.203125 23.390625 
L 4.890625 23.390625 
z
" id="DejaVuSans-2d"/>
     <path d="M 53.515625 70.515625 
L 53.515625 60.890625 
Q 47.90625 63.578125 42.921875 64.890625 
Q 37.9375 66.21875 33.296875 66.21875 
Q 25.25 66.21875 20.875 63.09375 
Q 16.5 59.96875 16.5 54.203125 
Q 16.5 49.359375 19.40625 46.890625 
Q 22.3125 44.4375 30.421875 42.921875 
L 36.375 41.703125 
Q 47.40625 39.59375 52.65625 34.296875 
Q 57.90625 29 57.90625 20.125 
Q 57.90625 9.515625 50.796875 4.046875 
Q 43.703125 -1.421875 29.984375 -1.421875 
Q 24.8125 -1.421875 18.96875 -0.25 
Q 13.140625 0.921875 6.890625 3.21875 
L 6.890625 13.375 
Q 12.890625 10.015625 18.65625 8.296875 
Q 24.421875 6.59375 29.984375 6.59375 
Q 38.421875 6.59375 43.015625 9.90625 
Q 47.609375 13.234375 47.609375 19.390625 
Q 47.609375 24.75 44.3125 27.78125 
Q 41.015625 30.8125 33.5 32.328125 
L 27.484375 33.5 
Q 16.453125 35.6875 11.515625 40.375 
Q 6.59375 45.0625 6.59375 53.421875 
Q 6.59375 63.09375 13.40625 68.65625 
Q 20.21875 74.21875 32.171875 74.21875 
Q 37.3125 74.21875 42.625 73.28125 
Q 47.953125 72.359375 53.515625 70.515625 
z
" id="DejaVuSans-53"/>
     <path d="M 48.78125 52.59375 
L 48.78125 44.1875 
Q 44.96875 46.296875 41.140625 47.34375 
Q 37.3125 48.390625 33.40625 48.390625 
Q 24.65625 48.390625 19.8125 42.84375 
Q 14.984375 37.3125 14.984375 27.296875 
Q 14.984375 17.28125 19.8125 11.734375 
Q 24.65625 6.203125 33.40625 6.203125 
Q 37.3125 6.203125 41.140625 7.25 
Q 44.96875 8.296875 48.78125 10.40625 
L 48.78125 2.09375 
Q 45.015625 0.34375 40.984375 -0.53125 
Q 36.96875 -1.421875 32.421875 -1.421875 
Q 20.0625 -1.421875 12.78125 6.34375 
Q 5.515625 14.109375 5.515625 27.296875 
Q 5.515625 40.671875 12.859375 48.328125 
Q 20.21875 56 33.015625 56 
Q 37.15625 56 41.109375 55.140625 
Q 45.0625 54.296875 48.78125 52.59375 
z
" id="DejaVuSans-63"/>
     <path d="M 56.203125 29.59375 
L 56.203125 25.203125 
L 14.890625 25.203125 
Q 15.484375 15.921875 20.484375 11.0625 
Q 25.484375 6.203125 34.421875 6.203125 
Q 39.59375 6.203125 44.453125 7.46875 
Q 49.3125 8.734375 54.109375 11.28125 
L 54.109375 2.78125 
Q 49.265625 0.734375 44.1875 -0.34375 
Q 39.109375 -1.421875 33.890625 -1.421875 
Q 20.796875 -1.421875 13.15625 6.1875 
Q 5.515625 13.8125 5.515625 26.8125 
Q 5.515625 40.234375 12.765625 48.109375 
Q 20.015625 56 32.328125 56 
Q 43.359375 56 49.78125 48.890625 
Q 56.203125 41.796875 56.203125 29.59375 
z
M 47.21875 32.234375 
Q 47.125 39.59375 43.09375 43.984375 
Q 39.0625 48.390625 32.421875 48.390625 
Q 24.90625 48.390625 20.390625 44.140625 
Q 15.875 39.890625 15.1875 32.171875 
z
" id="DejaVuSans-65"/>
     <path d="M 54.890625 33.015625 
L 54.890625 0 
L 45.90625 0 
L 45.90625 32.71875 
Q 45.90625 40.484375 42.875 44.328125 
Q 39.84375 48.1875 33.796875 48.1875 
Q 26.515625 48.1875 22.3125 43.546875 
Q 18.109375 38.921875 18.109375 30.90625 
L 18.109375 0 
L 9.078125 0 
L 9.078125 54.6875 
L 18.109375 54.6875 
L 18.109375 46.1875 
Q 21.34375 51.125 25.703125 53.5625 
Q 30.078125 56 35.796875 56 
Q 45.21875 56 50.046875 50.171875 
Q 54.890625 44.34375 54.890625 33.015625 
z
" id="DejaVuSans-6e"/>
     <path d="M 34.28125 27.484375 
Q 23.390625 27.484375 19.1875 25 
Q 14.984375 22.515625 14.984375 16.5 
Q 14.984375 11.71875 18.140625 8.90625 
Q 21.296875 6.109375 26.703125 6.109375 
Q 34.1875 6.109375 38.703125 11.40625 
Q 43.21875 16.703125 43.21875 25.484375 
L 43.21875 27.484375 
z
M 52.203125 31.203125 
L 52.203125 0 
L 43.21875 0 
L 43.21875 8.296875 
Q 40.140625 3.328125 35.546875 0.953125 
Q 30.953125 -1.421875 24.3125 -1.421875 
Q 15.921875 -1.421875 10.953125 3.296875 
Q 6 8.015625 6 15.921875 
Q 6 25.140625 12.171875 29.828125 
Q 18.359375 34.515625 30.609375 34.515625 
L 43.21875 34.515625 
L 43.21875 35.40625 
Q 43.21875 41.609375 39.140625 45 
Q 35.0625 48.390625 27.6875 48.390625 
Q 23 48.390625 18.546875 47.265625 
Q 14.109375 46.140625 10.015625 43.890625 
L 10.015625 52.203125 
Q 14.9375 54.109375 19.578125 55.046875 
Q 24.21875 56 28.609375 56 
Q 40.484375 56 46.34375 49.84375 
Q 52.203125 43.703125 52.203125 31.203125 
z
" id="DejaVuSans-61"/>
     <path d="M 41.109375 46.296875 
Q 39.59375 47.171875 37.8125 47.578125 
Q 36.03125 48 33.890625 48 
Q 26.265625 48 22.1875 43.046875 
Q 18.109375 38.09375 18.109375 28.8125 
L 18.109375 0 
L 9.078125 0 
L 9.078125 54.6875 
L 18.109375 54.6875 
L 18.109375 46.1875 
Q 20.953125 51.171875 25.484375 53.578125 
Q 30.03125 56 36.53125 56 
Q 37.453125 56 38.578125 55.875 
Q 39.703125 55.765625 41.0625 55.515625 
z
" id="DejaVuSans-72"/>
     <path d="M 9.421875 54.6875 
L 18.40625 54.6875 
L 18.40625 0 
L 9.421875 0 
z
M 9.421875 75.984375 
L 18.40625 75.984375 
L 18.40625 64.59375 
L 9.421875 64.59375 
z
" id="DejaVuSans-69"/>
     <path d="M 30.609375 48.390625 
Q 23.390625 48.390625 19.1875 42.75 
Q 14.984375 37.109375 14.984375 27.296875 
Q 14.984375 17.484375 19.15625 11.84375 
Q 23.34375 6.203125 30.609375 6.203125 
Q 37.796875 6.203125 41.984375 11.859375 
Q 46.1875 17.53125 46.1875 27.296875 
Q 46.1875 37.015625 41.984375 42.703125 
Q 37.796875 48.390625 30.609375 48.390625 
z
M 30.609375 56 
Q 42.328125 56 49.015625 48.375 
Q 55.71875 40.765625 55.71875 27.296875 
Q 55.71875 13.875 49.015625 6.21875 
Q 42.328125 -1.421875 30.609375 -1.421875 
Q 18.84375 -1.421875 12.171875 6.21875 
Q 5.515625 13.875 5.515625 27.296875 
Q 5.515625 40.765625 12.171875 48.375 
Q 18.84375 56 30.609375 56 
z
" id="DejaVuSans-6f"/>
     <path d="M 9.8125 72.90625 
L 51.703125 72.90625 
L 51.703125 64.59375 
L 19.671875 64.59375 
L 19.671875 43.109375 
L 48.578125 43.109375 
L 48.578125 34.8125 
L 19.671875 34.8125 
L 19.671875 0 
L 9.8125 0 
z
" id="DejaVuSans-46"/>
     <path d="M 9.421875 75.984375 
L 18.40625 75.984375 
L 18.40625 0 
L 9.421875 0 
z
" id="DejaVuSans-6c"/>
     <path d="M 4.203125 54.6875 
L 13.1875 54.6875 
L 24.421875 12.015625 
L 35.59375 54.6875 
L 46.1875 54.6875 
L 57.421875 12.015625 
L 68.609375 54.6875 
L 77.59375 54.6875 
L 63.28125 0 
L 52.6875 0 
L 40.921875 44.828125 
L 29.109375 0 
L 18.5 0 
z
" id="DejaVuSans-77"/>
     <path d="M 19.671875 64.796875 
L 19.671875 37.40625 
L 32.078125 37.40625 
Q 38.96875 37.40625 42.71875 40.96875 
Q 46.484375 44.53125 46.484375 51.125 
Q 46.484375 57.671875 42.71875 61.234375 
Q 38.96875 64.796875 32.078125 64.796875 
z
M 9.8125 72.90625 
L 32.078125 72.90625 
Q 44.34375 72.90625 50.609375 67.359375 
Q 56.890625 61.8125 56.890625 51.125 
Q 56.890625 40.328125 50.609375 34.8125 
Q 44.34375 29.296875 32.078125 29.296875 
L 19.671875 29.296875 
L 19.671875 0 
L 9.8125 0 
z
" id="DejaVuSans-50"/>
     <path d="M 18.3125 70.21875 
L 18.3125 54.6875 
L 36.8125 54.6875 
L 36.8125 47.703125 
L 18.3125 47.703125 
L 18.3125 18.015625 
Q 18.3125 11.328125 20.140625 9.421875 
Q 21.96875 7.515625 27.59375 7.515625 
L 36.8125 7.515625 
L 36.8125 0 
L 27.59375 0 
Q 17.1875 0 13.234375 3.875 
Q 9.28125 7.765625 9.28125 18.015625 
L 9.28125 47.703125 
L 2.6875 47.703125 
L 2.6875 54.6875 
L 9.28125 54.6875 
L 9.28125 70.21875 
z
" id="DejaVuSans-74"/>
     <path d="M 54.890625 33.015625 
L 54.890625 0 
L 45.90625 0 
L 45.90625 32.71875 
Q 45.90625 40.484375 42.875 44.328125 
Q 39.84375 48.1875 33.796875 48.1875 
Q 26.515625 48.1875 22.3125 43.546875 
Q 18.109375 38.921875 18.109375 30.90625 
L 18.109375 0 
L 9.078125 0 
L 9.078125 75.984375 
L 18.109375 75.984375 
L 18.109375 46.1875 
Q 21.34375 51.125 25.703125 53.5625 
Q 30.078125 56 35.796875 56 
Q 45.21875 56 50.046875 50.171875 
Q 54.890625 44.34375 54.890625 33.015625 
z
" id="DejaVuSans-68"/>
    </defs>
    <g transform="translate(132.830625 16.318125)scale(0.12 -0.12)">
     <use xlink:href="#DejaVuSans-33"/>
     <use x="63.623047" xlink:href="#DejaVuSans-44"/>
     <use x="140.625" xlink:href="#DejaVuSans-20"/>
     <use x="172.412109" xlink:href="#DejaVuSans-2d"/>
     <use x="208.496094" xlink:href="#DejaVuSans-20"/>
     <use x="240.283203" xlink:href="#DejaVuSans-53"/>
     <use x="303.759766" xlink:href="#DejaVuSans-63"/>
     <use x="358.740234" xlink:href="#DejaVuSans-65"/>
     <use x="420.263672" xlink:href="#DejaVuSans-6e"/>
     <use x="483.642578" xlink:href="#DejaVuSans-61"/>
     <use x="544.921875" xlink:href="#DejaVuSans-72"/>
     <use x="586.035156" xlink:href="#DejaVuSans-69"/>
     <use x="613.818359" xlink:href="#DejaVuSans-6f"/>
     <use x="675" xlink:href="#DejaVuSans-20"/>
     <use x="706.787109" xlink:href="#DejaVuSans-32"/>
     <use x="770.410156" xlink:href="#DejaVuSans-20"/>
     <use x="802.197266" xlink:href="#DejaVuSans-2d"/>
     <use x="838.28125" xlink:href="#DejaVuSans-20"/>
     <use x="870.068359" xlink:href="#DejaVuSans-46"/>
     <use x="927.587891" xlink:href="#DejaVuSans-6c"/>
     <use x="955.371094" xlink:href="#DejaVuSans-6f"/>
     <use x="1016.552734" xlink:href="#DejaVuSans-77"/>
     <use x="1098.339844" xlink:href="#DejaVuSans-6e"/>
     <use x="1161.71875" xlink:href="#DejaVuSans-20"/>
     <use x="1193.505859" xlink:href="#DejaVuSans-50"/>
     <use x="1253.746094" xlink:href="#DejaVuSans-61"/>
     <use x="1315.025391" xlink:href="#DejaVuSans-74"/>
     <use x="1354.234375" xlink:href="#DejaVuSans-68"/>
    </g>
   </g>
   <g id="legend_1">
    <g id="patch_10">
     <path d="M 400.826406 103.70875 
L 498.017031 103.70875 
Q 500.017031 103.70875 500.017031 101.70875 
L 500.017031 29.318125 
Q 500.017031 27.318125 498.017031 27.318125 
L 400.826406 27.318125 
Q 398.826406 27.318125 398.826406 29.318125 
L 398.826406 101.70875 
Q 398.826406 103.70875 400.826406 103.70875 
z
" style="fill:#ffffff;opacity:0.8;stroke:#cccccc;stroke-linejoin:miter;"/>
    </g>
    <g id="text_19">
     <!-- Legend -->
     <defs>
      <path d="M 9.8125 72.90625 
L 19.671875 72.90625 
L 19.671875 8.296875 
L 55.171875 8.296875 
L 55.171875 0 
L 9.8125 0 
z
" id="DejaVuSans-4c"/>
      <path d="M 45.40625 27.984375 
Q 45.40625 37.75 41.375 43.109375 
Q 37.359375 48.484375 30.078125 48.484375 
Q 22.859375 48.484375 18.828125 43.109375 
Q 14.796875 37.75 14.796875 27.984375 
Q 14.796875 18.265625 18.828125 12.890625 
Q 22.859375 7.515625 30.078125 7.515625 
Q 37.359375 7.515625 41.375 12.890625 
Q 45.40625 18.265625 45.40625 27.984375 
z
M 54.390625 6.78125 
Q 54.390625 -7.171875 48.1875 -13.984375 
Q 42 -20.796875 29.203125 -20.796875 
Q 24.46875 -20.796875 20.265625 -20.09375 
Q 16.0625 -19.390625 12.109375 -17.921875 
L 12.109375 -9.1875 
Q 16.0625 -11.328125 19.921875 -12.34375 
Q 23.78125 -13.375 27.78125 -13.375 
Q 36.625 -13.375 41.015625 -8.765625 
Q 45.40625 -4.15625 45.40625 5.171875 
L 45.40625 9.625 
Q 42.625 4.78125 38.28125 2.390625 
Q 33.9375 0 27.875 0 
Q 17.828125 0 11.671875 7.65625 
Q 5.515625 15.328125 5.515625 27.984375 
Q 5.515625 40.671875 11.671875 48.328125 
Q 17.828125 56 27.875 56 
Q 33.9375 56 38.28125 53.609375 
Q 42.625 51.21875 45.40625 46.390625 
L 45.40625 54.6875 
L 54.390625 54.6875 
z
" id="DejaVuSans-67"/>
      <path d="M 45.40625 46.390625 
L 45.40625 75.984375 
L 54.390625 75.984375 
L 54.390625 0 
L 45.40625 0 
L 45.40625 8.203125 
Q 42.578125 3.328125 38.25 0.953125 
Q 33.9375 -1.421875 27.875 -1.421875 
Q 17.96875 -1.421875 11.734375 6.484375 
Q 5.515625 14.40625 5.515625 27.296875 
Q 5.515625 40.1875 11.734375 48.09375 
Q 17.96875 56 27.875 56 
Q 33.9375 56 38.25 53.625 
Q 42.578125 51.265625 45.40625 46.390625 
z
M 14.796875 27.296875 
Q 14.796875 17.390625 18.875 11.75 
Q 22.953125 6.109375 30.078125 6.109375 
Q 37.203125 6.109375 41.296875 11.75 
Q 45.40625 17.390625 45.40625 27.296875 
Q 45.40625 37.203125 41.296875 42.84375 
Q 37.203125 48.484375 30.078125 48.484375 
Q 22.953125 48.484375 18.875 42.84375 
Q 14.796875 37.203125 14.796875 27.296875 
z
" id="DejaVuSans-64"/>
     </defs>
     <g transform="translate(430.96625 38.916562)scale(0.1 -0.1)">
      <use xlink:href="#DejaVuSans-4c"/>
      <use x="55.697266" xlink:href="#DejaVuSans-65"/>
      <use x="117.220703" xlink:href="#DejaVuSans-67"/>
      <use x="180.697266" xlink:href="#DejaVuSans-65"/>
      <use x="242.220703" xlink:href="#DejaVuSans-6e"/>
      <use x="305.599609" xlink:href="#DejaVuSans-64"/>
     </g>
    </g>
    <g id="PathCollection_1">
     <defs>
      <path d="M -5 5 
L 5 -5 
M -5 -5 
L 5 5 
" id="m5143accf28" style="stroke:#ff0000;stroke-width:5;"/>
     </defs>
     <g>
      <use style="fill:#ff0000;stroke:#ff0000;stroke-width:5;" x="412.826406" xlink:href="#m5143accf28" y="50.969687"/>
     </g>
    </g>
    <g id="text_20">
     <!-- Goal -->
     <defs>
      <path d="M 59.515625 10.40625 
L 59.515625 29.984375 
L 43.40625 29.984375 
L 43.40625 38.09375 
L 69.28125 38.09375 
L 69.28125 6.78125 
Q 63.578125 2.734375 56.6875 0.65625 
Q 49.8125 -1.421875 42 -1.421875 
Q 24.90625 -1.421875 15.25 8.5625 
Q 5.609375 18.5625 5.609375 36.375 
Q 5.609375 54.25 15.25 64.234375 
Q 24.90625 74.21875 42 74.21875 
Q 49.125 74.21875 55.546875 72.453125 
Q 61.96875 70.703125 67.390625 67.28125 
L 67.390625 56.78125 
Q 61.921875 61.421875 55.765625 63.765625 
Q 49.609375 66.109375 42.828125 66.109375 
Q 29.4375 66.109375 22.71875 58.640625 
Q 16.015625 51.171875 16.015625 36.375 
Q 16.015625 21.625 22.71875 14.15625 
Q 29.4375 6.6875 42.828125 6.6875 
Q 48.046875 6.6875 52.140625 7.59375 
Q 56.25 8.5 59.515625 10.40625 
z
" id="DejaVuSans-47"/>
     </defs>
     <g transform="translate(430.826406 53.594687)scale(0.1 -0.1)">
      <use xlink:href="#DejaVuSans-47"/>
      <use x="77.490234" xlink:href="#DejaVuSans-6f"/>
      <use x="138.671875" xlink:href="#DejaVuSans-61"/>
      <use x="199.951172" xlink:href="#DejaVuSans-6c"/>
     </g>
    </g>
    <g id="PathCollection_2">
     <defs>
      <path d="M -5 5 
L 5 -5 
M -5 -5 
L 5 5 
" id="mad52cd0c92" style="stroke:#0000ff;stroke-width:5;"/>
     </defs>
     <g>
      <use style="fill:#0000ff;stroke:#0000ff;stroke-width:5;" x="412.826406" xlink:href="#mad52cd0c92" y="65.647812"/>
     </g>
    </g>
    <g id="text_21">
     <!-- Start -->
     <g transform="translate(430.826406 68.272812)scale(0.1 -0.1)">
      <use xlink:href="#DejaVuSans-53"/>
      <use x="63.476562" xlink:href="#DejaVuSans-74"/>
      <use x="102.685547" xlink:href="#DejaVuSans-61"/>
      <use x="163.964844" xlink:href="#DejaVuSans-72"/>
      <use x="205.078125" xlink:href="#DejaVuSans-74"/>
     </g>
    </g>
    <g id="line2d_19">
     <path d="M 402.826406 79.450937 
L 422.826406 79.450937 
" style="fill:none;stroke:#008000;stroke-linecap:square;stroke-width:1.5;"/>
    </g>
    <g id="line2d_20"/>
    <g id="text_22">
     <!-- APF-Path -->
     <defs>
      <path d="M 34.1875 63.1875 
L 20.796875 26.90625 
L 47.609375 26.90625 
z
M 28.609375 72.90625 
L 39.796875 72.90625 
L 67.578125 0 
L 57.328125 0 
L 50.6875 18.703125 
L 17.828125 18.703125 
L 11.1875 0 
L 0.78125 0 
z
" id="DejaVuSans-41"/>
     </defs>
     <g transform="translate(430.826406 82.950937)scale(0.1 -0.1)">
      <use xlink:href="#DejaVuSans-41"/>
      <use x="68.408203" xlink:href="#DejaVuSans-50"/>
      <use x="128.710938" xlink:href="#DejaVuSans-46"/>
      <use x="186.230469" xlink:href="#DejaVuSans-2d"/>
      <use x="222.314453" xlink:href="#DejaVuSans-50"/>
      <use x="282.554688" xlink:href="#DejaVuSans-61"/>
      <use x="343.833984" xlink:href="#DejaVuSans-74"/>
      <use x="383.042969" xlink:href="#DejaVuSans-68"/>
     </g>
    </g>
    <g id="line2d_21">
     <path d="M 402.826406 94.129062 
L 422.826406 94.129062 
" style="fill:none;stroke:#ffa500;stroke-linecap:square;stroke-width:1.5;"/>
    </g>
    <g id="line2d_22"/>
    <g id="text_23">
     <!-- 3DVFH*-Path -->
     <defs>
      <path d="M 28.609375 0 
L 0.78125 72.90625 
L 11.078125 72.90625 
L 34.1875 11.53125 
L 57.328125 72.90625 
L 67.578125 72.90625 
L 39.796875 0 
z
" id="DejaVuSans-56"/>
      <path d="M 9.8125 72.90625 
L 19.671875 72.90625 
L 19.671875 43.015625 
L 55.515625 43.015625 
L 55.515625 72.90625 
L 65.375 72.90625 
L 65.375 0 
L 55.515625 0 
L 55.515625 34.71875 
L 19.671875 34.71875 
L 19.671875 0 
L 9.8125 0 
z
" id="DejaVuSans-48"/>
      <path d="M 47.015625 60.890625 
L 29.5 51.421875 
L 47.015625 41.890625 
L 44.1875 37.109375 
L 27.78125 47.015625 
L 27.78125 28.609375 
L 22.21875 28.609375 
L 22.21875 47.015625 
L 5.8125 37.109375 
L 2.984375 41.890625 
L 20.515625 51.421875 
L 2.984375 60.890625 
L 5.8125 65.71875 
L 22.21875 55.8125 
L 22.21875 74.21875 
L 27.78125 74.21875 
L 27.78125 55.8125 
L 44.1875 65.71875 
z
" id="DejaVuSans-2a"/>
     </defs>
     <g transform="translate(430.826406 97.629062)scale(0.1 -0.1)">
      <use xlink:href="#DejaVuSans-33"/>
      <use x="63.623047" xlink:href="#DejaVuSans-44"/>
      <use x="140.609375" xlink:href="#DejaVuSans-56"/>
      <use x="209.017578" xlink:href="#DejaVuSans-46"/>
      <use x="266.537109" xlink:href="#DejaVuSans-48"/>
      <use x="341.732422" xlink:href="#DejaVuSans-2a"/>
      <use x="391.732422" xlink:href="#DejaVuSans-2d"/>
      <use x="427.816406" xlink:href="#DejaVuSans-50"/>
      <use x="488.056641" xlink:href="#DejaVuSans-61"/>
      <use x="549.335938" xlink:href="#DejaVuSans-74"/>
      <use x="588.544922" xlink:href="#DejaVuSans-68"/>
     </g>
    </g>
   </g>
   <g id="PathCollection_3">
    <g clip-path="url(#p36fa466e01)">
     <use style="fill:#ff0000;stroke:#ff0000;stroke-width:5;" x="321.404687" xlink:href="#m5143accf28" y="87.699375"/>
    </g>
   </g>
   <g id="PathCollection_4">
    <g clip-path="url(#p36fa466e01)">
     <use style="fill:#0000ff;stroke:#0000ff;stroke-width:5;" x="59.879688" xlink:href="#mad52cd0c92" y="87.699375"/>
    </g>
   </g>
  </g>
  <g id="axes_2">
   <g id="patch_11">
    <path d="M 48.982813 315.143125 
L 386.785937 315.143125 
L 386.785937 227.968125 
L 48.982813 227.968125 
z
" style="fill:#ffffff;"/>
   </g>
   <g id="matplotlib.axis_3">
    <g id="xtick_8">
     <g id="line2d_23">
      <g>
       <use style="stroke:#000000;stroke-width:0.8;" x="59.879688" xlink:href="#m9692e02bef" y="315.143125"/>
      </g>
     </g>
     <g id="text_24">
      <!-- 0 -->
      <g transform="translate(56.698438 329.741562)scale(0.1 -0.1)">
       <use xlink:href="#DejaVuSans-30"/>
      </g>
     </g>
    </g>
    <g id="xtick_9">
     <g id="line2d_24">
      <g>
       <use style="stroke:#000000;stroke-width:0.8;" x="114.364062" xlink:href="#m9692e02bef" y="315.143125"/>
      </g>
     </g>
     <g id="text_25">
      <!-- 5 -->
      <g transform="translate(111.182812 329.741562)scale(0.1 -0.1)">
       <use xlink:href="#DejaVuSans-35"/>
      </g>
     </g>
    </g>
    <g id="xtick_10">
     <g id="line2d_25">
      <g>
       <use style="stroke:#000000;stroke-width:0.8;" x="168.848437" xlink:href="#m9692e02bef" y="315.143125"/>
      </g>
     </g>
     <g id="text_26">
      <!-- 10 -->
      <g transform="translate(162.485937 329.741562)scale(0.1 -0.1)">
       <use xlink:href="#DejaVuSans-31"/>
       <use x="63.623047" xlink:href="#DejaVuSans-30"/>
      </g>
     </g>
    </g>
    <g id="xtick_11">
     <g id="line2d_26">
      <g>
       <use style="stroke:#000000;stroke-width:0.8;" x="223.332812" xlink:href="#m9692e02bef" y="315.143125"/>
      </g>
     </g>
     <g id="text_27">
      <!-- 15 -->
      <g transform="translate(216.970312 329.741562)scale(0.1 -0.1)">
       <use xlink:href="#DejaVuSans-31"/>
       <use x="63.623047" xlink:href="#DejaVuSans-35"/>
      </g>
     </g>
    </g>
    <g id="xtick_12">
     <g id="line2d_27">
      <g>
       <use style="stroke:#000000;stroke-width:0.8;" x="277.817187" xlink:href="#m9692e02bef" y="315.143125"/>
      </g>
     </g>
     <g id="text_28">
      <!-- 20 -->
      <g transform="translate(271.454687 329.741562)scale(0.1 -0.1)">
       <use xlink:href="#DejaVuSans-32"/>
       <use x="63.623047" xlink:href="#DejaVuSans-30"/>
      </g>
     </g>
    </g>
    <g id="xtick_13">
     <g id="line2d_28">
      <g>
       <use style="stroke:#000000;stroke-width:0.8;" x="332.301562" xlink:href="#m9692e02bef" y="315.143125"/>
      </g>
     </g>
     <g id="text_29">
      <!-- 25 -->
      <g transform="translate(325.939062 329.741562)scale(0.1 -0.1)">
       <use xlink:href="#DejaVuSans-32"/>
       <use x="63.623047" xlink:href="#DejaVuSans-35"/>
      </g>
     </g>
    </g>
    <g id="xtick_14">
     <g id="line2d_29">
      <g>
       <use style="stroke:#000000;stroke-width:0.8;" x="386.785937" xlink:href="#m9692e02bef" y="315.143125"/>
      </g>
     </g>
     <g id="text_30">
      <!-- 30 -->
      <g transform="translate(380.423437 329.741562)scale(0.1 -0.1)">
       <use xlink:href="#DejaVuSans-33"/>
       <use x="63.623047" xlink:href="#DejaVuSans-30"/>
      </g>
     </g>
    </g>
    <g id="text_31">
     <!-- x -->
     <defs>
      <path d="M 54.890625 54.6875 
L 35.109375 28.078125 
L 55.90625 0 
L 45.3125 0 
L 29.390625 21.484375 
L 13.484375 0 
L 2.875 0 
L 24.125 28.609375 
L 4.6875 54.6875 
L 15.28125 54.6875 
L 29.78125 35.203125 
L 44.28125 54.6875 
z
" id="DejaVuSans-78"/>
     </defs>
     <g transform="translate(214.925 343.419687)scale(0.1 -0.1)">
      <use xlink:href="#DejaVuSans-78"/>
     </g>
    </g>
   </g>
   <g id="matplotlib.axis_4">
    <g id="ytick_10">
     <g id="line2d_30">
      <g>
       <use style="stroke:#000000;stroke-width:0.8;" x="48.982813" xlink:href="#mf28fe56542" y="315.143125"/>
      </g>
     </g>
     <g id="text_32">
      <!-- 0 -->
      <g transform="translate(35.620312 318.942344)scale(0.1 -0.1)">
       <use xlink:href="#DejaVuSans-30"/>
      </g>
     </g>
    </g>
    <g id="ytick_11">
     <g id="line2d_31">
      <g>
       <use style="stroke:#000000;stroke-width:0.8;" x="48.982813" xlink:href="#mf28fe56542" y="293.349375"/>
      </g>
     </g>
     <g id="text_33">
      <!-- 2 -->
      <g transform="translate(35.620312 297.148594)scale(0.1 -0.1)">
       <use xlink:href="#DejaVuSans-32"/>
      </g>
     </g>
    </g>
    <g id="ytick_12">
     <g id="line2d_32">
      <g>
       <use style="stroke:#000000;stroke-width:0.8;" x="48.982813" xlink:href="#mf28fe56542" y="271.555625"/>
      </g>
     </g>
     <g id="text_34">
      <!-- 4 -->
      <g transform="translate(35.620312 275.354844)scale(0.1 -0.1)">
       <use xlink:href="#DejaVuSans-34"/>
      </g>
     </g>
    </g>
    <g id="ytick_13">
     <g id="line2d_33">
      <g>
       <use style="stroke:#000000;stroke-width:0.8;" x="48.982813" xlink:href="#mf28fe56542" y="249.761875"/>
      </g>
     </g>
     <g id="text_35">
      <!-- 6 -->
      <g transform="translate(35.620312 253.561094)scale(0.1 -0.1)">
       <use xlink:href="#DejaVuSans-36"/>
      </g>
     </g>
    </g>
    <g id="ytick_14">
     <g id="line2d_34">
      <g>
       <use style="stroke:#000000;stroke-width:0.8;" x="48.982813" xlink:href="#mf28fe56542" y="227.968125"/>
      </g>
     </g>
     <g id="text_36">
      <!-- 8 -->
      <g transform="translate(35.620312 231.767344)scale(0.1 -0.1)">
       <use xlink:href="#DejaVuSans-38"/>
      </g>
     </g>
    </g>
    <g id="text_37">
     <!-- z -->
     <defs>
      <path d="M 5.515625 54.6875 
L 48.1875 54.6875 
L 48.1875 46.484375 
L 14.40625 7.171875 
L 48.1875 7.171875 
L 48.1875 0 
L 4.296875 0 
L 4.296875 8.203125 
L 38.09375 47.515625 
L 5.515625 47.515625 
z
" id="DejaVuSans-7a"/>
     </defs>
     <g transform="translate(29.540625 274.179844)rotate(-90)scale(0.1 -0.1)">
      <use xlink:href="#DejaVuSans-7a"/>
     </g>
    </g>
   </g>
   <g id="LineCollection_3">
    <path clip-path="url(#p2d9b4c86cb)" d="M 119.8125 315.143125 
L 119.8125 304.24625 
" style="fill:none;stroke:#000000;stroke-width:1.5;"/>
    <path clip-path="url(#p2d9b4c86cb)" d="M 130.709375 315.143125 
L 130.709375 304.24625 
" style="fill:none;stroke:#000000;stroke-width:1.5;"/>
   </g>
   <g id="LineCollection_4">
    <path clip-path="url(#p2d9b4c86cb)" d="M 119.8125 315.143125 
L 130.709375 315.143125 
" style="fill:none;stroke:#000000;stroke-width:1.5;"/>
    <path clip-path="url(#p2d9b4c86cb)" d="M 119.8125 304.24625 
L 130.709375 304.24625 
" style="fill:none;stroke:#000000;stroke-width:1.5;"/>
   </g>
   <g id="LineCollection_5">
    <path clip-path="url(#p2d9b4c86cb)" d="M 185.19375 315.143125 
L 185.19375 249.761875 
" style="fill:none;stroke:#000000;stroke-width:1.5;"/>
    <path clip-path="url(#p2d9b4c86cb)" d="M 196.090625 315.143125 
L 196.090625 249.761875 
" style="fill:none;stroke:#000000;stroke-width:1.5;"/>
   </g>
   <g id="LineCollection_6">
    <path clip-path="url(#p2d9b4c86cb)" d="M 185.19375 315.143125 
L 196.090625 315.143125 
" style="fill:none;stroke:#000000;stroke-width:1.5;"/>
    <path clip-path="url(#p2d9b4c86cb)" d="M 185.19375 249.761875 
L 196.090625 249.761875 
" style="fill:none;stroke:#000000;stroke-width:1.5;"/>
   </g>
   <g id="line2d_35">
    <path clip-path="url(#p2d9b4c86cb)" d="M 59.265639 304.597764 
L 59.284205 304.351711 
L 59.372886 304.121226 
L 60.229426 303.610454 
L 63.38844 302.819375 
L 69.378035 300.548285 
L 72.728892 298.929085 
L 74.415603 297.975228 
L 76.092018 296.882306 
L 77.733541 295.569821 
L 79.358499 294.117324 
L 80.967682 292.490117 
L 82.575578 290.682565 
L 89.388835 282.461515 
L 91.221757 280.443004 
L 93.141902 278.587466 
L 95.153908 276.914439 
L 99.434818 273.979225 
L 101.697117 272.73041 
L 104.049206 271.636836 
L 109.008863 269.653975 
L 111.603591 268.803779 
L 116.982443 267.450586 
L 122.607967 266.31823 
L 128.401265 265.50106 
L 134.362624 264.799953 
L 140.470828 264.254973 
L 157.92473 263.391937 
L 162.506469 262.686518 
L 166.060567 261.969361 
L 167.424869 261.476975 
L 168.321393 260.61012 
L 168.626359 259.705013 
L 168.502039 258.760306 
L 168.084672 257.855198 
L 167.358578 257.068316 
L 166.370064 256.324654 
L 163.999311 254.931873 
L 162.796481 254.404672 
L 160.656379 253.830344 
L 159.043998 253.521986 
L 158.528987 253.567472 
L 157.959273 254.055405 
L 157.887527 254.399617 
L 158.113461 255.19157 
L 158.679797 255.927345 
L 159.563476 256.696727 
L 160.881523 257.581643 
L 161.308066 257.710941 
L 161.997278 257.516079 
L 162.511572 257.159163 
L 162.590437 256.87519 
L 162.312834 256.728033 
L 161.179371 256.629189 
L 160.765569 256.794516 
L 160.919891 256.58747 
L 161.220928 256.405354 
L 161.983156 256.307544 
L 162.317947 256.251951 
L 166.366177 256.065294 
L 168.383392 256.628446 
L 171.494009 257.896782 
L 184.163137 263.419284 
L 191.293708 266.26986 
L 202.713626 270.057489 
L 216.263181 274.437847 
L 230.774439 278.942412 
L 276.923615 293.203821 
L 305.02716 300.945781 
L 312.778417 302.868879 
L 315.398612 303.454068 
L 315.398612 303.454068 
" style="fill:none;stroke:#008000;stroke-linecap:square;stroke-width:1.5;"/>
   </g>
   <g id="line2d_36">
    <path clip-path="url(#p2d9b4c86cb)" d="M 52.554558 309.002053 
L 52.690085 306.507601 
L 52.741987 304.5912 
L 52.920425 302.43524 
L 53.305569 300.317155 
L 54.011277 297.868976 
L 54.812443 295.815765 
L 55.847045 293.594351 
L 58.27259 289.158126 
L 61.233216 284.544974 
L 62.692027 282.5226 
L 66.25942 278.192832 
L 70.262769 273.916784 
L 74.759362 269.719357 
L 79.648056 265.6996 
L 82.28108 263.761827 
L 87.84396 260.083907 
L 90.725401 258.339126 
L 96.761497 255.055284 
L 103.211795 251.983471 
L 109.374954 249.409402 
L 115.843909 247.042935 
L 122.492048 244.95521 
L 129.229025 243.17229 
L 136.212444 241.690027 
L 143.381725 240.540565 
L 150.87713 239.677639 
L 158.596068 239.079856 
L 166.631165 238.762493 
L 174.837128 238.777395 
L 183.322024 239.136659 
L 191.88219 239.853577 
L 200.609159 240.882085 
L 209.324406 242.192686 
L 218.157489 243.773107 
L 226.900285 245.595258 
L 235.663149 247.608862 
L 248.642013 250.89657 
L 261.464767 254.365588 
L 281.986112 260.14918 
L 305.143468 266.938875 
L 322.954914 272.350231 
L 329.850364 274.01939 
L 336.553623 275.265851 
L 342.977918 276.068438 
L 349.051937 276.674998 
L 351.767634 277.099992 
L 354.180216 277.715075 
L 356.315994 278.515522 
L 358.132112 279.482678 
L 359.594983 280.5747 
L 360.730462 281.724484 
L 361.594812 282.918156 
L 362.22586 284.115668 
L 362.997097 286.633508 
L 363.580861 289.737894 
L 363.82335 292.654538 
L 363.674722 293.619957 
L 363.465301 293.935781 
L 363.094492 294.139428 
L 362.546642 294.237007 
L 361.073151 294.124021 
L 358.792549 293.637011 
L 354.070829 292.263159 
L 342.867492 288.82235 
L 337.879381 287.648389 
L 335.471227 287.272991 
L 333.185657 287.074446 
L 331.085857 287.043942 
L 329.165402 287.165912 
L 327.404154 287.427628 
L 325.802258 287.811755 
L 324.423896 288.321458 
L 323.215672 288.94943 
L 322.150713 289.685594 
L 321.222805 290.532901 
L 320.480084 291.494697 
L 319.8624 292.571292 
L 318.908928 294.922128 
L 318.389865 297.341635 
L 318.251152 298.54319 
L 318.251152 298.54319 
" style="fill:none;stroke:#ffa500;stroke-linecap:square;stroke-width:1.5;"/>
   </g>
   <g id="patch_12">
    <path d="M 48.982813 315.143125 
L 48.982813 227.968125 
" style="fill:none;stroke:#000000;stroke-linecap:square;stroke-linejoin:miter;stroke-width:0.8;"/>
   </g>
   <g id="patch_13">
    <path d="M 386.785937 315.143125 
L 386.785937 227.968125 
" style="fill:none;stroke:#000000;stroke-linecap:square;stroke-linejoin:miter;stroke-width:0.8;"/>
   </g>
   <g id="patch_14">
    <path d="M 48.982813 315.143125 
L 386.785937 315.143125 
" style="fill:none;stroke:#000000;stroke-linecap:square;stroke-linejoin:miter;stroke-width:0.8;"/>
   </g>
   <g id="patch_15">
    <path d="M 48.982813 227.968125 
L 386.785937 227.968125 
" style="fill:none;stroke:#000000;stroke-linecap:square;stroke-linejoin:miter;stroke-width:0.8;"/>
   </g>
   <g id="PathCollection_5">
    <g clip-path="url(#p2d9b4c86cb)">
     <use style="fill:#ff0000;stroke:#ff0000;stroke-width:5;" x="321.404687" xlink:href="#m5143accf28" y="304.24625"/>
    </g>
   </g>
   <g id="PathCollection_6">
    <g clip-path="url(#p2d9b4c86cb)">
     <use style="fill:#0000ff;stroke:#0000ff;stroke-width:5;" x="59.879688" xlink:href="#mad52cd0c92" y="304.24625"/>
    </g>
   </g>
  </g>
 </g>
 <defs>
  <clipPath id="p36fa466e01">
   <rect height="174.35" width="337.803125" x="48.982813" y="22.318125"/>
  </clipPath>
  <clipPath id="p2d9b4c86cb">
   <rect height="87.175" width="337.803125" x="48.982813" y="227.968125"/>
  </clipPath>
 </defs>
</svg>
