<?xml version="1.0" encoding="utf-8" standalone="no"?>
<!DOCTYPE svg PUBLIC "-//W3C//DTD SVG 1.1//EN"
  "http://www.w3.org/Graphics/SVG/1.1/DTD/svg11.dtd">
<!-- Created with matplotlib (http://matplotlib.org/) -->
<svg height="360pt" version="1.1" viewBox="0 0 360 360" width="360pt" xmlns="http://www.w3.org/2000/svg" xmlns:xlink="http://www.w3.org/1999/xlink">
 <defs>
  <style type="text/css">
*{stroke-linecap:butt;stroke-linejoin:round;}
  </style>
 </defs>
 <g id="figure_1">
  <g id="patch_1">
   <path d="M 0 360 
L 360 360 
L 360 0 
L 0 0 
z
" style="fill:#ffffff;"/>
  </g>
  <g id="axes_1">
   <g id="patch_2">
    <path d="M 46.601761 251.299296 
L 313.398239 251.299296 
L 313.398239 14.625 
L 46.601761 14.625 
z
" style="fill:#ffffff;"/>
   </g>
   <g id="patch_3">
    <path clip-path="url(#p52a65e006e)" d="M 158.484155 122.204225 
C 159.625369 122.204225 160.719995 121.750816 161.526955 120.943856 
C 162.333915 120.136896 162.787324 119.04227 162.787324 117.901056 
C 162.787324 116.759843 162.333915 115.665216 161.526955 114.858256 
C 160.719995 114.051296 159.625369 113.597887 158.484155 113.597887 
C 157.342941 113.597887 156.248315 114.051296 155.441355 114.858256 
C 154.634395 115.665216 154.180986 116.759843 154.180986 117.901056 
C 154.180986 119.04227 154.634395 120.136896 155.441355 120.943856 
C 156.248315 121.750816 157.342941 122.204225 158.484155 122.204225 
z
" style="fill:none;stroke:#000000;stroke-linejoin:miter;stroke-width:2;"/>
   </g>
   <g id="patch_4">
    <path clip-path="url(#p52a65e006e)" d="M 158.484155 104.991549 
C 159.625369 104.991549 160.719995 104.53814 161.526955 103.73118 
C 162.333915 102.92422 162.787324 101.829594 162.787324 100.68838 
C 162.787324 99.547167 162.333915 98.45254 161.526955 97.64558 
C 160.719995 96.83862 159.625369 96.385211 158.484155 96.385211 
C 157.342941 96.385211 156.248315 96.83862 155.441355 97.64558 
C 154.634395 98.45254 154.180986 99.547167 154.180986 100.68838 
C 154.180986 101.829594 154.634395 102.92422 155.441355 103.73118 
C 156.248315 104.53814 157.342941 104.991549 158.484155 104.991549 
z
" style="fill:none;stroke:#000000;stroke-linejoin:miter;stroke-width:2;"/>
   </g>
   <g id="patch_5">
    <path clip-path="url(#p52a65e006e)" d="M 158.484155 87.778873 
C 159.625369 87.778873 160.719995 87.325464 161.526955 86.518504 
C 162.333915 85.711544 162.787324 84.616918 162.787324 83.475704 
C 162.787324 82.33449 162.333915 81.239864 161.526955 80.432904 
C 160.719995 79.625944 159.625369 79.172535 158.484155 79.172535 
C 157.342941 79.172535 156.248315 79.625944 155.441355 80.432904 
C 154.634395 81.239864 154.180986 82.33449 154.180986 83.475704 
C 154.180986 84.616918 154.634395 85.711544 155.441355 86.518504 
C 156.248315 87.325464 157.342941 87.778873 158.484155 87.778873 
z
" style="fill:none;stroke:#000000;stroke-linejoin:miter;stroke-width:2;"/>
   </g>
   <g id="matplotlib.axis_1">
    <g id="xtick_1">
     <g id="line2d_1">
      <defs>
       <path d="M 0 0 
L 0 3.5 
" id="m1f468fbb85" style="stroke:#000000;stroke-width:0.8;"/>
      </defs>
      <g>
       <use style="stroke:#000000;stroke-width:0.8;" x="55.208099" xlink:href="#m1f468fbb85" y="251.299296"/>
      </g>
     </g>
    </g>
    <g id="xtick_2">
     <g id="line2d_2">
      <g>
       <use style="stroke:#000000;stroke-width:0.8;" x="98.239789" xlink:href="#m1f468fbb85" y="251.299296"/>
      </g>
     </g>
    </g>
    <g id="xtick_3">
     <g id="line2d_3">
      <g>
       <use style="stroke:#000000;stroke-width:0.8;" x="141.271479" xlink:href="#m1f468fbb85" y="251.299296"/>
      </g>
     </g>
    </g>
    <g id="xtick_4">
     <g id="line2d_4">
      <g>
       <use style="stroke:#000000;stroke-width:0.8;" x="184.303169" xlink:href="#m1f468fbb85" y="251.299296"/>
      </g>
     </g>
    </g>
    <g id="xtick_5">
     <g id="line2d_5">
      <g>
       <use style="stroke:#000000;stroke-width:0.8;" x="227.334859" xlink:href="#m1f468fbb85" y="251.299296"/>
      </g>
     </g>
    </g>
    <g id="xtick_6">
     <g id="line2d_6">
      <g>
       <use style="stroke:#000000;stroke-width:0.8;" x="270.366549" xlink:href="#m1f468fbb85" y="251.299296"/>
      </g>
     </g>
    </g>
    <g id="xtick_7">
     <g id="line2d_7">
      <g>
       <use style="stroke:#000000;stroke-width:0.8;" x="313.398239" xlink:href="#m1f468fbb85" y="251.299296"/>
      </g>
     </g>
    </g>
   </g>
   <g id="matplotlib.axis_2">
    <g id="ytick_1">
     <g id="line2d_8">
      <defs>
       <path d="M 0 0 
L -3.5 0 
" id="m8023e47631" style="stroke:#000000;stroke-width:0.8;"/>
      </defs>
      <g>
       <use style="stroke:#000000;stroke-width:0.8;" x="46.601761" xlink:href="#m8023e47631" y="229.783451"/>
      </g>
     </g>
     <g id="text_1">
      <!-- −15 -->
      <defs>
       <path d="M 10.59375 35.5 
L 73.1875 35.5 
L 73.1875 27.203125 
L 10.59375 27.203125 
z
" id="DejaVuSans-2212"/>
       <path d="M 12.40625 8.296875 
L 28.515625 8.296875 
L 28.515625 63.921875 
L 10.984375 60.40625 
L 10.984375 69.390625 
L 28.421875 72.90625 
L 38.28125 72.90625 
L 38.28125 8.296875 
L 54.390625 8.296875 
L 54.390625 0 
L 12.40625 0 
z
" id="DejaVuSans-31"/>
       <path d="M 10.796875 72.90625 
L 49.515625 72.90625 
L 49.515625 64.59375 
L 19.828125 64.59375 
L 19.828125 46.734375 
Q 21.96875 47.46875 24.109375 47.828125 
Q 26.265625 48.1875 28.421875 48.1875 
Q 40.625 48.1875 47.75 41.5 
Q 54.890625 34.8125 54.890625 23.390625 
Q 54.890625 11.625 47.5625 5.09375 
Q 40.234375 -1.421875 26.90625 -1.421875 
Q 22.3125 -1.421875 17.546875 -0.640625 
Q 12.796875 0.140625 7.71875 1.703125 
L 7.71875 11.625 
Q 12.109375 9.234375 16.796875 8.0625 
Q 21.484375 6.890625 26.703125 6.890625 
Q 35.15625 6.890625 40.078125 11.328125 
Q 45.015625 15.765625 45.015625 23.390625 
Q 45.015625 31 40.078125 35.4375 
Q 35.15625 39.890625 26.703125 39.890625 
Q 22.75 39.890625 18.8125 39.015625 
Q 14.890625 38.140625 10.796875 36.28125 
z
" id="DejaVuSans-35"/>
      </defs>
      <g transform="translate(18.497073 233.582669)scale(0.1 -0.1)">
       <use xlink:href="#DejaVuSans-2212"/>
       <use x="83.789062" xlink:href="#DejaVuSans-31"/>
       <use x="147.412109" xlink:href="#DejaVuSans-35"/>
      </g>
     </g>
    </g>
    <g id="ytick_2">
     <g id="line2d_9">
      <g>
       <use style="stroke:#000000;stroke-width:0.8;" x="46.601761" xlink:href="#m8023e47631" y="186.751761"/>
      </g>
     </g>
     <g id="text_2">
      <!-- −10 -->
      <defs>
       <path d="M 31.78125 66.40625 
Q 24.171875 66.40625 20.328125 58.90625 
Q 16.5 51.421875 16.5 36.375 
Q 16.5 21.390625 20.328125 13.890625 
Q 24.171875 6.390625 31.78125 6.390625 
Q 39.453125 6.390625 43.28125 13.890625 
Q 47.125 21.390625 47.125 36.375 
Q 47.125 51.421875 43.28125 58.90625 
Q 39.453125 66.40625 31.78125 66.40625 
z
M 31.78125 74.21875 
Q 44.046875 74.21875 50.515625 64.515625 
Q 56.984375 54.828125 56.984375 36.375 
Q 56.984375 17.96875 50.515625 8.265625 
Q 44.046875 -1.421875 31.78125 -1.421875 
Q 19.53125 -1.421875 13.0625 8.265625 
Q 6.59375 17.96875 6.59375 36.375 
Q 6.59375 54.828125 13.0625 64.515625 
Q 19.53125 74.21875 31.78125 74.21875 
z
" id="DejaVuSans-30"/>
      </defs>
      <g transform="translate(18.497073 190.550979)scale(0.1 -0.1)">
       <use xlink:href="#DejaVuSans-2212"/>
       <use x="83.789062" xlink:href="#DejaVuSans-31"/>
       <use x="147.412109" xlink:href="#DejaVuSans-30"/>
      </g>
     </g>
    </g>
    <g id="ytick_3">
     <g id="line2d_10">
      <g>
       <use style="stroke:#000000;stroke-width:0.8;" x="46.601761" xlink:href="#m8023e47631" y="143.72007"/>
      </g>
     </g>
     <g id="text_3">
      <!-- −5 -->
      <g transform="translate(24.859573 147.519289)scale(0.1 -0.1)">
       <use xlink:href="#DejaVuSans-2212"/>
       <use x="83.789062" xlink:href="#DejaVuSans-35"/>
      </g>
     </g>
    </g>
    <g id="ytick_4">
     <g id="line2d_11">
      <g>
       <use style="stroke:#000000;stroke-width:0.8;" x="46.601761" xlink:href="#m8023e47631" y="100.68838"/>
      </g>
     </g>
     <g id="text_4">
      <!-- 0 -->
      <g transform="translate(33.239261 104.487599)scale(0.1 -0.1)">
       <use xlink:href="#DejaVuSans-30"/>
      </g>
     </g>
    </g>
    <g id="ytick_5">
     <g id="line2d_12">
      <g>
       <use style="stroke:#000000;stroke-width:0.8;" x="46.601761" xlink:href="#m8023e47631" y="57.65669"/>
      </g>
     </g>
     <g id="text_5">
      <!-- 5 -->
      <g transform="translate(33.239261 61.455909)scale(0.1 -0.1)">
       <use xlink:href="#DejaVuSans-35"/>
      </g>
     </g>
    </g>
    <g id="ytick_6">
     <g id="line2d_13">
      <g>
       <use style="stroke:#000000;stroke-width:0.8;" x="46.601761" xlink:href="#m8023e47631" y="14.625"/>
      </g>
     </g>
     <g id="text_6">
      <!-- 10 -->
      <g transform="translate(26.876761 18.424219)scale(0.1 -0.1)">
       <use xlink:href="#DejaVuSans-31"/>
       <use x="63.623047" xlink:href="#DejaVuSans-30"/>
      </g>
     </g>
    </g>
   </g>
   <g id="LineCollection_1">
    <path clip-path="url(#p52a65e006e)" d="M 102.542958 130.810563 
L 102.542958 70.566197 
" style="fill:none;stroke:#000000;stroke-width:1.5;"/>
    <path clip-path="url(#p52a65e006e)" d="M 111.149296 130.810563 
L 111.149296 70.566197 
" style="fill:none;stroke:#000000;stroke-width:1.5;"/>
   </g>
   <g id="LineCollection_2">
    <path clip-path="url(#p52a65e006e)" d="M 102.542958 70.566197 
L 111.149296 70.566197 
" style="fill:none;stroke:#000000;stroke-width:1.5;"/>
    <path clip-path="url(#p52a65e006e)" d="M 102.542958 130.810563 
L 111.149296 130.810563 
" style="fill:none;stroke:#000000;stroke-width:1.5;"/>
   </g>
   <g id="LineCollection_3">
    <path clip-path="url(#p52a65e006e)" d="M 205.819014 182.448592 
L 205.819014 18.928169 
" style="fill:none;stroke:#000000;stroke-width:1.5;"/>
    <path clip-path="url(#p52a65e006e)" d="M 214.425352 182.448592 
L 214.425352 18.928169 
" style="fill:none;stroke:#000000;stroke-width:1.5;"/>
   </g>
   <g id="LineCollection_4">
    <path clip-path="url(#p52a65e006e)" d="M 205.819014 182.448592 
L 214.425352 182.448592 
" style="fill:none;stroke:#000000;stroke-width:1.5;"/>
    <path clip-path="url(#p52a65e006e)" d="M 205.819014 18.928169 
L 214.425352 18.928169 
" style="fill:none;stroke:#000000;stroke-width:1.5;"/>
   </g>
   <g id="LineCollection_5">
    <path clip-path="url(#p52a65e006e)" d="M 205.819014 173.842254 
L 214.425352 173.842254 
" style="fill:none;stroke:#000000;stroke-dasharray:1.5,2.475;stroke-dashoffset:0;stroke-width:1.5;"/>
    <path clip-path="url(#p52a65e006e)" d="M 205.819014 27.534507 
L 214.425352 27.534507 
" style="fill:none;stroke:#000000;stroke-dasharray:1.5,2.475;stroke-dashoffset:0;stroke-width:1.5;"/>
   </g>
   <g id="line2d_14">
    <path clip-path="url(#p52a65e006e)" d="M 54.769573 100.492319 
L 54.808684 100.492038 
L 57.516569 100.525441 
L 63.382574 100.506714 
L 68.691579 100.557557 
L 72.57951 100.483009 
L 80.984968 100.733261 
L 91.500078 101.191636 
L 106.383253 102.08322 
L 127.861659 103.072215 
L 135.652181 103.316131 
L 138.336737 103.247917 
L 139.647178 103.380618 
L 139.736264 103.258459 
L 139.467866 103.126077 
L 138.123552 102.849645 
L 134.998262 101.742736 
L 132.83595 101.150002 
L 128.692026 100.142952 
L 128.704559 99.962011 
L 129.160551 99.887162 
L 130.646372 100.066952 
L 131.688751 100.065947 
L 131.793719 99.992689 
L 131.670054 99.977688 
L 131.25263 99.897951 
L 130.604013 99.713366 
L 130.045401 99.675736 
L 129.923041 99.7189 
L 129.922746 99.670473 
L 130.730525 96.335981 
L 131.267158 93.497739 
L 132.219515 87.594245 
L 133.110865 83.417003 
L 133.877164 80.938759 
L 134.564307 79.17445 
L 136.001392 76.424206 
L 137.668192 73.7127 
L 140.069133 70.486142 
L 143.790643 65.871331 
L 147.301749 61.80922 
L 149.65241 59.552931 
L 151.393588 58.220646 
L 153.451105 56.881252 
L 155.846703 55.645674 
L 158.310095 54.730472 
L 161.160823 53.92371 
L 164.304778 53.352766 
L 167.767033 52.986861 
L 171.404348 52.825421 
L 175.273817 52.83566 
L 179.30006 53.132407 
L 183.522491 53.721051 
L 187.801751 54.660079 
L 192.209576 55.909131 
L 196.565832 57.527194 
L 200.945069 59.520051 
L 205.263472 61.808223 
L 209.464997 64.330452 
L 213.665833 67.070902 
L 219.848799 71.420322 
L 228.078357 77.586921 
L 254.696845 97.951947 
L 256.767929 99.43309 
L 256.767929 99.43309 
" style="fill:none;stroke:#008000;stroke-linecap:square;stroke-width:1.5;"/>
   </g>
   <g id="line2d_15">
    <path clip-path="url(#p52a65e006e)" d="M 49.236372 102.020532 
L 49.143609 102.640588 
L 49.735895 103.576319 
L 50.310579 104.270415 
L 51.083711 105.015504 
L 52.01008 105.712663 
L 54.190543 106.896394 
L 59.778456 109.658834 
L 73.49385 116.964493 
L 78.14773 119.629352 
L 85.470144 124.269531 
L 90.494506 127.783404 
L 95.637252 131.594615 
L 100.788861 135.722235 
L 108.665047 142.342643 
L 133.288462 163.83174 
L 141.649047 171.355182 
L 147.006873 176.606629 
L 152.10941 182.145664 
L 156.894252 187.927309 
L 161.535937 193.970112 
L 168.285353 203.263233 
L 175.064949 212.563429 
L 179.786946 218.52455 
L 182.257127 221.41795 
L 184.808743 224.181956 
L 187.448896 226.794309 
L 190.171716 229.268536 
L 192.972476 231.598267 
L 195.862355 233.72582 
L 198.836673 235.642099 
L 201.880905 237.372074 
L 204.987317 238.924944 
L 208.168222 240.263659 
L 211.417136 241.394164 
L 214.70648 242.339422 
L 218.013258 243.101304 
L 221.347712 243.649427 
L 224.697366 243.992655 
L 228.032345 244.166033 
L 231.342569 244.184139 
L 234.666501 244.019723 
L 237.99603 243.670127 
L 241.285801 243.144165 
L 244.50937 242.442181 
L 247.704852 241.544249 
L 250.866239 240.460561 
L 253.957369 239.216873 
L 256.963418 237.831456 
L 259.921486 236.290487 
L 262.825563 234.6076 
L 265.644331 232.806531 
L 268.359977 230.893231 
L 271.005925 228.854263 
L 273.570731 226.700446 
L 276.019465 224.452176 
L 278.337369 222.116937 
L 280.565301 219.682813 
L 282.699995 217.15183 
L 284.707469 214.536341 
L 286.574199 211.846073 
L 288.337694 209.073457 
L 289.996458 206.226734 
L 291.528809 203.328065 
L 292.931413 200.385773 
L 294.234689 197.378788 
L 295.434416 194.310089 
L 296.503117 191.193171 
L 297.435079 188.033942 
L 299.008993 181.540941 
L 300.177334 174.881423 
L 301.087135 168.034106 
L 301.720568 161.042889 
L 302.105966 153.910061 
L 302.142129 146.707981 
L 301.962907 139.425273 
L 301.456922 132.117352 
L 300.609746 124.790571 
L 300.043517 121.131269 
L 299.354978 117.496707 
L 298.553386 113.905245 
L 297.632111 110.374673 
L 296.575279 106.917612 
L 295.379343 103.544767 
L 294.064347 100.257351 
L 292.630341 97.057166 
L 291.077372 93.947601 
L 289.418952 90.943352 
L 287.685793 88.058908 
L 285.900024 85.312196 
L 284.076876 82.723732 
L 282.236164 80.3247 
L 280.408536 78.149725 
L 278.603478 76.207462 
L 276.810502 74.493317 
L 275.036354 73.016764 
L 273.321925 71.802143 
L 271.692149 70.836403 
L 268.716238 69.477258 
L 266.180241 68.747939 
L 264.144893 68.551137 
L 262.567794 68.793845 
L 261.931866 69.075387 
L 261.385303 69.461223 
L 260.909144 69.936585 
L 260.493624 70.50851 
L 260.149855 71.209674 
L 259.657249 72.996688 
L 259.384443 75.328034 
L 259.286871 78.294408 
L 259.326514 81.795066 
L 259.572365 85.690851 
L 260.151989 89.430101 
L 261.356083 95.167575 
L 261.451981 96.284715 
L 261.451981 96.284715 
" style="fill:none;stroke:#ffa500;stroke-linecap:square;stroke-width:1.5;"/>
   </g>
   <g id="patch_6">
    <path d="M 46.601761 251.299296 
L 46.601761 14.625 
" style="fill:none;stroke:#000000;stroke-linecap:square;stroke-linejoin:miter;stroke-width:0.8;"/>
   </g>
   <g id="patch_7">
    <path d="M 313.398239 251.299296 
L 313.398239 14.625 
" style="fill:none;stroke:#000000;stroke-linecap:square;stroke-linejoin:miter;stroke-width:0.8;"/>
   </g>
   <g id="patch_8">
    <path d="M 46.601761 251.299296 
L 313.398239 251.299296 
" style="fill:none;stroke:#000000;stroke-linecap:square;stroke-linejoin:miter;stroke-width:0.8;"/>
   </g>
   <g id="patch_9">
    <path d="M 46.601761 14.625 
L 313.398239 14.625 
" style="fill:none;stroke:#000000;stroke-linecap:square;stroke-linejoin:miter;stroke-width:0.8;"/>
   </g>
   <g id="legend_1">
    <g id="patch_10">
     <path d="M 53.601761 246.299296 
L 124.775198 246.299296 
Q 126.775198 246.299296 126.775198 244.299296 
L 126.775198 186.586796 
Q 126.775198 184.586796 124.775198 184.586796 
L 53.601761 184.586796 
Q 51.601761 184.586796 51.601761 186.586796 
L 51.601761 244.299296 
Q 51.601761 246.299296 53.601761 246.299296 
z
" style="fill:#ffffff;opacity:0.8;stroke:#cccccc;stroke-linejoin:miter;"/>
    </g>
    <g id="PathCollection_1">
     <defs>
      <path d="M -5 5 
L 5 -5 
M -5 -5 
L 5 5 
" id="m0399c82497" style="stroke:#0000ff;stroke-width:5;"/>
     </defs>
     <g>
      <use style="fill:#0000ff;stroke:#0000ff;stroke-width:5;" x="65.601761" xlink:href="#m0399c82497" y="193.560233"/>
     </g>
    </g>
    <g id="text_7">
     <!-- Start -->
     <defs>
      <path d="M 53.515625 70.515625 
L 53.515625 60.890625 
Q 47.90625 63.578125 42.921875 64.890625 
Q 37.9375 66.21875 33.296875 66.21875 
Q 25.25 66.21875 20.875 63.09375 
Q 16.5 59.96875 16.5 54.203125 
Q 16.5 49.359375 19.40625 46.890625 
Q 22.3125 44.4375 30.421875 42.921875 
L 36.375 41.703125 
Q 47.40625 39.59375 52.65625 34.296875 
Q 57.90625 29 57.90625 20.125 
Q 57.90625 9.515625 50.796875 4.046875 
Q 43.703125 -1.421875 29.984375 -1.421875 
Q 24.8125 -1.421875 18.96875 -0.25 
Q 13.140625 0.921875 6.890625 3.21875 
L 6.890625 13.375 
Q 12.890625 10.015625 18.65625 8.296875 
Q 24.421875 6.59375 29.984375 6.59375 
Q 38.421875 6.59375 43.015625 9.90625 
Q 47.609375 13.234375 47.609375 19.390625 
Q 47.609375 24.75 44.3125 27.78125 
Q 41.015625 30.8125 33.5 32.328125 
L 27.484375 33.5 
Q 16.453125 35.6875 11.515625 40.375 
Q 6.59375 45.0625 6.59375 53.421875 
Q 6.59375 63.09375 13.40625 68.65625 
Q 20.21875 74.21875 32.171875 74.21875 
Q 37.3125 74.21875 42.625 73.28125 
Q 47.953125 72.359375 53.515625 70.515625 
z
" id="DejaVuSans-53"/>
      <path d="M 18.3125 70.21875 
L 18.3125 54.6875 
L 36.8125 54.6875 
L 36.8125 47.703125 
L 18.3125 47.703125 
L 18.3125 18.015625 
Q 18.3125 11.328125 20.140625 9.421875 
Q 21.96875 7.515625 27.59375 7.515625 
L 36.8125 7.515625 
L 36.8125 0 
L 27.59375 0 
Q 17.1875 0 13.234375 3.875 
Q 9.28125 7.765625 9.28125 18.015625 
L 9.28125 47.703125 
L 2.6875 47.703125 
L 2.6875 54.6875 
L 9.28125 54.6875 
L 9.28125 70.21875 
z
" id="DejaVuSans-74"/>
      <path d="M 34.28125 27.484375 
Q 23.390625 27.484375 19.1875 25 
Q 14.984375 22.515625 14.984375 16.5 
Q 14.984375 11.71875 18.140625 8.90625 
Q 21.296875 6.109375 26.703125 6.109375 
Q 34.1875 6.109375 38.703125 11.40625 
Q 43.21875 16.703125 43.21875 25.484375 
L 43.21875 27.484375 
z
M 52.203125 31.203125 
L 52.203125 0 
L 43.21875 0 
L 43.21875 8.296875 
Q 40.140625 3.328125 35.546875 0.953125 
Q 30.953125 -1.421875 24.3125 -1.421875 
Q 15.921875 -1.421875 10.953125 3.296875 
Q 6 8.015625 6 15.921875 
Q 6 25.140625 12.171875 29.828125 
Q 18.359375 34.515625 30.609375 34.515625 
L 43.21875 34.515625 
L 43.21875 35.40625 
Q 43.21875 41.609375 39.140625 45 
Q 35.0625 48.390625 27.6875 48.390625 
Q 23 48.390625 18.546875 47.265625 
Q 14.109375 46.140625 10.015625 43.890625 
L 10.015625 52.203125 
Q 14.9375 54.109375 19.578125 55.046875 
Q 24.21875 56 28.609375 56 
Q 40.484375 56 46.34375 49.84375 
Q 52.203125 43.703125 52.203125 31.203125 
z
" id="DejaVuSans-61"/>
      <path d="M 41.109375 46.296875 
Q 39.59375 47.171875 37.8125 47.578125 
Q 36.03125 48 33.890625 48 
Q 26.265625 48 22.1875 43.046875 
Q 18.109375 38.09375 18.109375 28.8125 
L 18.109375 0 
L 9.078125 0 
L 9.078125 54.6875 
L 18.109375 54.6875 
L 18.109375 46.1875 
Q 20.953125 51.171875 25.484375 53.578125 
Q 30.03125 56 36.53125 56 
Q 37.453125 56 38.578125 55.875 
Q 39.703125 55.765625 41.0625 55.515625 
z
" id="DejaVuSans-72"/>
     </defs>
     <g transform="translate(83.601761 196.185233)scale(0.1 -0.1)">
      <use xlink:href="#DejaVuSans-53"/>
      <use x="63.476562" xlink:href="#DejaVuSans-74"/>
      <use x="102.685547" xlink:href="#DejaVuSans-61"/>
      <use x="163.964844" xlink:href="#DejaVuSans-72"/>
      <use x="205.078125" xlink:href="#DejaVuSans-74"/>
     </g>
    </g>
    <g id="PathCollection_2">
     <defs>
      <path d="M -5 5 
L 5 -5 
M -5 -5 
L 5 5 
" id="m9a34a87f0c" style="stroke:#ff0000;stroke-width:5;"/>
     </defs>
     <g>
      <use style="fill:#ff0000;stroke:#ff0000;stroke-width:5;" x="65.601761" xlink:href="#m9a34a87f0c" y="208.238358"/>
     </g>
    </g>
    <g id="text_8">
     <!-- Ziel -->
     <defs>
      <path d="M 5.609375 72.90625 
L 62.890625 72.90625 
L 62.890625 65.375 
L 16.796875 8.296875 
L 64.015625 8.296875 
L 64.015625 0 
L 4.5 0 
L 4.5 7.515625 
L 50.59375 64.59375 
L 5.609375 64.59375 
z
" id="DejaVuSans-5a"/>
      <path d="M 9.421875 54.6875 
L 18.40625 54.6875 
L 18.40625 0 
L 9.421875 0 
z
M 9.421875 75.984375 
L 18.40625 75.984375 
L 18.40625 64.59375 
L 9.421875 64.59375 
z
" id="DejaVuSans-69"/>
      <path d="M 56.203125 29.59375 
L 56.203125 25.203125 
L 14.890625 25.203125 
Q 15.484375 15.921875 20.484375 11.0625 
Q 25.484375 6.203125 34.421875 6.203125 
Q 39.59375 6.203125 44.453125 7.46875 
Q 49.3125 8.734375 54.109375 11.28125 
L 54.109375 2.78125 
Q 49.265625 0.734375 44.1875 -0.34375 
Q 39.109375 -1.421875 33.890625 -1.421875 
Q 20.796875 -1.421875 13.15625 6.1875 
Q 5.515625 13.8125 5.515625 26.8125 
Q 5.515625 40.234375 12.765625 48.109375 
Q 20.015625 56 32.328125 56 
Q 43.359375 56 49.78125 48.890625 
Q 56.203125 41.796875 56.203125 29.59375 
z
M 47.21875 32.234375 
Q 47.125 39.59375 43.09375 43.984375 
Q 39.0625 48.390625 32.421875 48.390625 
Q 24.90625 48.390625 20.390625 44.140625 
Q 15.875 39.890625 15.1875 32.171875 
z
" id="DejaVuSans-65"/>
      <path d="M 9.421875 75.984375 
L 18.40625 75.984375 
L 18.40625 0 
L 9.421875 0 
z
" id="DejaVuSans-6c"/>
     </defs>
     <g transform="translate(83.601761 210.863358)scale(0.1 -0.1)">
      <use xlink:href="#DejaVuSans-5a"/>
      <use x="68.505859" xlink:href="#DejaVuSans-69"/>
      <use x="96.289062" xlink:href="#DejaVuSans-65"/>
      <use x="157.8125" xlink:href="#DejaVuSans-6c"/>
     </g>
    </g>
    <g id="line2d_16">
     <path d="M 55.601761 222.041483 
L 75.601761 222.041483 
" style="fill:none;stroke:#008000;stroke-linecap:square;stroke-width:1.5;"/>
    </g>
    <g id="line2d_17"/>
    <g id="text_9">
     <!-- APF -->
     <defs>
      <path d="M 34.1875 63.1875 
L 20.796875 26.90625 
L 47.609375 26.90625 
z
M 28.609375 72.90625 
L 39.796875 72.90625 
L 67.578125 0 
L 57.328125 0 
L 50.6875 18.703125 
L 17.828125 18.703125 
L 11.1875 0 
L 0.78125 0 
z
" id="DejaVuSans-41"/>
      <path d="M 19.671875 64.796875 
L 19.671875 37.40625 
L 32.078125 37.40625 
Q 38.96875 37.40625 42.71875 40.96875 
Q 46.484375 44.53125 46.484375 51.125 
Q 46.484375 57.671875 42.71875 61.234375 
Q 38.96875 64.796875 32.078125 64.796875 
z
M 9.8125 72.90625 
L 32.078125 72.90625 
Q 44.34375 72.90625 50.609375 67.359375 
Q 56.890625 61.8125 56.890625 51.125 
Q 56.890625 40.328125 50.609375 34.8125 
Q 44.34375 29.296875 32.078125 29.296875 
L 19.671875 29.296875 
L 19.671875 0 
L 9.8125 0 
z
" id="DejaVuSans-50"/>
      <path d="M 9.8125 72.90625 
L 51.703125 72.90625 
L 51.703125 64.59375 
L 19.671875 64.59375 
L 19.671875 43.109375 
L 48.578125 43.109375 
L 48.578125 34.8125 
L 19.671875 34.8125 
L 19.671875 0 
L 9.8125 0 
z
" id="DejaVuSans-46"/>
     </defs>
     <g transform="translate(83.601761 225.541483)scale(0.1 -0.1)">
      <use xlink:href="#DejaVuSans-41"/>
      <use x="68.408203" xlink:href="#DejaVuSans-50"/>
      <use x="128.710938" xlink:href="#DejaVuSans-46"/>
     </g>
    </g>
    <g id="line2d_18">
     <path d="M 55.601761 236.719608 
L 75.601761 236.719608 
" style="fill:none;stroke:#ffa500;stroke-linecap:square;stroke-width:1.5;"/>
    </g>
    <g id="line2d_19"/>
    <g id="text_10">
     <!-- 3DVFH* -->
     <defs>
      <path d="M 40.578125 39.3125 
Q 47.65625 37.796875 51.625 33 
Q 55.609375 28.21875 55.609375 21.1875 
Q 55.609375 10.40625 48.1875 4.484375 
Q 40.765625 -1.421875 27.09375 -1.421875 
Q 22.515625 -1.421875 17.65625 -0.515625 
Q 12.796875 0.390625 7.625 2.203125 
L 7.625 11.71875 
Q 11.71875 9.328125 16.59375 8.109375 
Q 21.484375 6.890625 26.8125 6.890625 
Q 36.078125 6.890625 40.9375 10.546875 
Q 45.796875 14.203125 45.796875 21.1875 
Q 45.796875 27.640625 41.28125 31.265625 
Q 36.765625 34.90625 28.71875 34.90625 
L 20.21875 34.90625 
L 20.21875 43.015625 
L 29.109375 43.015625 
Q 36.375 43.015625 40.234375 45.921875 
Q 44.09375 48.828125 44.09375 54.296875 
Q 44.09375 59.90625 40.109375 62.90625 
Q 36.140625 65.921875 28.71875 65.921875 
Q 24.65625 65.921875 20.015625 65.03125 
Q 15.375 64.15625 9.8125 62.3125 
L 9.8125 71.09375 
Q 15.4375 72.65625 20.34375 73.4375 
Q 25.25 74.21875 29.59375 74.21875 
Q 40.828125 74.21875 47.359375 69.109375 
Q 53.90625 64.015625 53.90625 55.328125 
Q 53.90625 49.265625 50.4375 45.09375 
Q 46.96875 40.921875 40.578125 39.3125 
z
" id="DejaVuSans-33"/>
      <path d="M 19.671875 64.796875 
L 19.671875 8.109375 
L 31.59375 8.109375 
Q 46.6875 8.109375 53.6875 14.9375 
Q 60.6875 21.78125 60.6875 36.53125 
Q 60.6875 51.171875 53.6875 57.984375 
Q 46.6875 64.796875 31.59375 64.796875 
z
M 9.8125 72.90625 
L 30.078125 72.90625 
Q 51.265625 72.90625 61.171875 64.09375 
Q 71.09375 55.28125 71.09375 36.53125 
Q 71.09375 17.671875 61.125 8.828125 
Q 51.171875 0 30.078125 0 
L 9.8125 0 
z
" id="DejaVuSans-44"/>
      <path d="M 28.609375 0 
L 0.78125 72.90625 
L 11.078125 72.90625 
L 34.1875 11.53125 
L 57.328125 72.90625 
L 67.578125 72.90625 
L 39.796875 0 
z
" id="DejaVuSans-56"/>
      <path d="M 9.8125 72.90625 
L 19.671875 72.90625 
L 19.671875 43.015625 
L 55.515625 43.015625 
L 55.515625 72.90625 
L 65.375 72.90625 
L 65.375 0 
L 55.515625 0 
L 55.515625 34.71875 
L 19.671875 34.71875 
L 19.671875 0 
L 9.8125 0 
z
" id="DejaVuSans-48"/>
      <path d="M 47.015625 60.890625 
L 29.5 51.421875 
L 47.015625 41.890625 
L 44.1875 37.109375 
L 27.78125 47.015625 
L 27.78125 28.609375 
L 22.21875 28.609375 
L 22.21875 47.015625 
L 5.8125 37.109375 
L 2.984375 41.890625 
L 20.515625 51.421875 
L 2.984375 60.890625 
L 5.8125 65.71875 
L 22.21875 55.8125 
L 22.21875 74.21875 
L 27.78125 74.21875 
L 27.78125 55.8125 
L 44.1875 65.71875 
z
" id="DejaVuSans-2a"/>
     </defs>
     <g transform="translate(83.601761 240.219608)scale(0.1 -0.1)">
      <use xlink:href="#DejaVuSans-33"/>
      <use x="63.623047" xlink:href="#DejaVuSans-44"/>
      <use x="140.609375" xlink:href="#DejaVuSans-56"/>
      <use x="209.017578" xlink:href="#DejaVuSans-46"/>
      <use x="266.537109" xlink:href="#DejaVuSans-48"/>
      <use x="341.732422" xlink:href="#DejaVuSans-2a"/>
     </g>
    </g>
   </g>
   <g id="PathCollection_3">
    <g clip-path="url(#p52a65e006e)">
     <use style="fill:#ff0000;stroke:#ff0000;stroke-width:5;" x="261.760211" xlink:href="#m9a34a87f0c" y="100.68838"/>
    </g>
   </g>
   <g id="PathCollection_4">
    <g clip-path="url(#p52a65e006e)">
     <use style="fill:#0000ff;stroke:#0000ff;stroke-width:5;" x="55.208099" xlink:href="#m0399c82497" y="100.68838"/>
    </g>
   </g>
  </g>
  <g id="axes_2">
   <g id="patch_11">
    <path d="M 46.601761 332.525 
L 313.398239 332.525 
L 313.398239 263.674296 
L 46.601761 263.674296 
z
" style="fill:#ffffff;"/>
   </g>
   <g id="matplotlib.axis_3">
    <g id="xtick_8">
     <g id="line2d_20">
      <g>
       <use style="stroke:#000000;stroke-width:0.8;" x="55.208099" xlink:href="#m1f468fbb85" y="332.525"/>
      </g>
     </g>
     <g id="text_11">
      <!-- 0 -->
      <g transform="translate(52.026849 347.123437)scale(0.1 -0.1)">
       <use xlink:href="#DejaVuSans-30"/>
      </g>
     </g>
    </g>
    <g id="xtick_9">
     <g id="line2d_21">
      <g>
       <use style="stroke:#000000;stroke-width:0.8;" x="98.239789" xlink:href="#m1f468fbb85" y="332.525"/>
      </g>
     </g>
     <g id="text_12">
      <!-- 5 -->
      <g transform="translate(95.058539 347.123437)scale(0.1 -0.1)">
       <use xlink:href="#DejaVuSans-35"/>
      </g>
     </g>
    </g>
    <g id="xtick_10">
     <g id="line2d_22">
      <g>
       <use style="stroke:#000000;stroke-width:0.8;" x="141.271479" xlink:href="#m1f468fbb85" y="332.525"/>
      </g>
     </g>
     <g id="text_13">
      <!-- 10 -->
      <g transform="translate(134.908979 347.123437)scale(0.1 -0.1)">
       <use xlink:href="#DejaVuSans-31"/>
       <use x="63.623047" xlink:href="#DejaVuSans-30"/>
      </g>
     </g>
    </g>
    <g id="xtick_11">
     <g id="line2d_23">
      <g>
       <use style="stroke:#000000;stroke-width:0.8;" x="184.303169" xlink:href="#m1f468fbb85" y="332.525"/>
      </g>
     </g>
     <g id="text_14">
      <!-- 15 -->
      <g transform="translate(177.940669 347.123437)scale(0.1 -0.1)">
       <use xlink:href="#DejaVuSans-31"/>
       <use x="63.623047" xlink:href="#DejaVuSans-35"/>
      </g>
     </g>
    </g>
    <g id="xtick_12">
     <g id="line2d_24">
      <g>
       <use style="stroke:#000000;stroke-width:0.8;" x="227.334859" xlink:href="#m1f468fbb85" y="332.525"/>
      </g>
     </g>
     <g id="text_15">
      <!-- 20 -->
      <defs>
       <path d="M 19.1875 8.296875 
L 53.609375 8.296875 
L 53.609375 0 
L 7.328125 0 
L 7.328125 8.296875 
Q 12.9375 14.109375 22.625 23.890625 
Q 32.328125 33.6875 34.8125 36.53125 
Q 39.546875 41.84375 41.421875 45.53125 
Q 43.3125 49.21875 43.3125 52.78125 
Q 43.3125 58.59375 39.234375 62.25 
Q 35.15625 65.921875 28.609375 65.921875 
Q 23.96875 65.921875 18.8125 64.3125 
Q 13.671875 62.703125 7.8125 59.421875 
L 7.8125 69.390625 
Q 13.765625 71.78125 18.9375 73 
Q 24.125 74.21875 28.421875 74.21875 
Q 39.75 74.21875 46.484375 68.546875 
Q 53.21875 62.890625 53.21875 53.421875 
Q 53.21875 48.921875 51.53125 44.890625 
Q 49.859375 40.875 45.40625 35.40625 
Q 44.1875 33.984375 37.640625 27.21875 
Q 31.109375 20.453125 19.1875 8.296875 
z
" id="DejaVuSans-32"/>
      </defs>
      <g transform="translate(220.972359 347.123437)scale(0.1 -0.1)">
       <use xlink:href="#DejaVuSans-32"/>
       <use x="63.623047" xlink:href="#DejaVuSans-30"/>
      </g>
     </g>
    </g>
    <g id="xtick_13">
     <g id="line2d_25">
      <g>
       <use style="stroke:#000000;stroke-width:0.8;" x="270.366549" xlink:href="#m1f468fbb85" y="332.525"/>
      </g>
     </g>
     <g id="text_16">
      <!-- 25 -->
      <g transform="translate(264.004049 347.123437)scale(0.1 -0.1)">
       <use xlink:href="#DejaVuSans-32"/>
       <use x="63.623047" xlink:href="#DejaVuSans-35"/>
      </g>
     </g>
    </g>
    <g id="xtick_14">
     <g id="line2d_26">
      <g>
       <use style="stroke:#000000;stroke-width:0.8;" x="313.398239" xlink:href="#m1f468fbb85" y="332.525"/>
      </g>
     </g>
     <g id="text_17">
      <!-- 30 -->
      <g transform="translate(307.035739 347.123437)scale(0.1 -0.1)">
       <use xlink:href="#DejaVuSans-33"/>
       <use x="63.623047" xlink:href="#DejaVuSans-30"/>
      </g>
     </g>
    </g>
   </g>
   <g id="matplotlib.axis_4">
    <g id="ytick_7">
     <g id="line2d_27">
      <g>
       <use style="stroke:#000000;stroke-width:0.8;" x="46.601761" xlink:href="#m8023e47631" y="332.525"/>
      </g>
     </g>
     <g id="text_18">
      <!-- 0 -->
      <g transform="translate(33.239261 336.324219)scale(0.1 -0.1)">
       <use xlink:href="#DejaVuSans-30"/>
      </g>
     </g>
    </g>
    <g id="ytick_8">
     <g id="line2d_28">
      <g>
       <use style="stroke:#000000;stroke-width:0.8;" x="46.601761" xlink:href="#m8023e47631" y="289.49331"/>
      </g>
     </g>
     <g id="text_19">
      <!-- 5 -->
      <g transform="translate(33.239261 293.292529)scale(0.1 -0.1)">
       <use xlink:href="#DejaVuSans-35"/>
      </g>
     </g>
    </g>
   </g>
   <g id="LineCollection_6">
    <path clip-path="url(#p43f8908a8a)" d="M 102.542958 332.525 
L 102.542958 323.918662 
" style="fill:none;stroke:#000000;stroke-width:1.5;"/>
    <path clip-path="url(#p43f8908a8a)" d="M 111.149296 332.525 
L 111.149296 323.918662 
" style="fill:none;stroke:#000000;stroke-width:1.5;"/>
   </g>
   <g id="LineCollection_7">
    <path clip-path="url(#p43f8908a8a)" d="M 102.542958 332.525 
L 111.149296 332.525 
" style="fill:none;stroke:#000000;stroke-width:1.5;"/>
    <path clip-path="url(#p43f8908a8a)" d="M 102.542958 323.918662 
L 111.149296 323.918662 
" style="fill:none;stroke:#000000;stroke-width:1.5;"/>
   </g>
   <g id="LineCollection_8">
    <path clip-path="url(#p43f8908a8a)" d="M 154.180986 332.525 
L 154.180986 280.886972 
" style="fill:none;stroke:#000000;stroke-width:1.5;"/>
    <path clip-path="url(#p43f8908a8a)" d="M 162.787324 332.525 
L 162.787324 280.886972 
" style="fill:none;stroke:#000000;stroke-width:1.5;"/>
   </g>
   <g id="LineCollection_9">
    <path clip-path="url(#p43f8908a8a)" d="M 154.180986 332.525 
L 162.787324 332.525 
" style="fill:none;stroke:#000000;stroke-width:1.5;"/>
    <path clip-path="url(#p43f8908a8a)" d="M 154.180986 280.886972 
L 162.787324 280.886972 
" style="fill:none;stroke:#000000;stroke-width:1.5;"/>
   </g>
   <g id="LineCollection_10">
    <path clip-path="url(#p43f8908a8a)" d="M 205.819014 332.525 
L 205.819014 280.886972 
" style="fill:none;stroke:#000000;stroke-width:1.5;"/>
    <path clip-path="url(#p43f8908a8a)" d="M 214.425352 332.525 
L 214.425352 280.886972 
" style="fill:none;stroke:#000000;stroke-width:1.5;"/>
   </g>
   <g id="LineCollection_11">
    <path clip-path="url(#p43f8908a8a)" d="M 205.819014 332.525 
L 214.425352 332.525 
" style="fill:none;stroke:#000000;stroke-width:1.5;"/>
    <path clip-path="url(#p43f8908a8a)" d="M 205.819014 280.886972 
L 214.425352 280.886972 
" style="fill:none;stroke:#000000;stroke-width:1.5;"/>
   </g>
   <g id="LineCollection_12">
    <path clip-path="url(#p43f8908a8a)" d="M 205.819014 289.49331 
L 214.425352 289.49331 
" style="fill:none;stroke:#000000;stroke-dasharray:1.5,2.475;stroke-dashoffset:0;stroke-width:1.5;"/>
   </g>
   <g id="line2d_29">
    <path clip-path="url(#p43f8908a8a)" d="M 54.769573 324.064707 
L 54.808684 323.8345 
L 54.944767 323.620854 
L 55.297567 323.43383 
L 57.516569 322.770896 
L 63.382574 320.283548 
L 67.366955 318.269571 
L 68.691579 317.327814 
L 69.999719 316.245286 
L 72.57951 313.669979 
L 80.984968 304.168579 
L 82.571373 302.796004 
L 85.948387 300.371 
L 87.734089 299.350757 
L 89.585233 298.453319 
L 93.47842 296.90127 
L 97.591758 295.664608 
L 101.909012 294.660489 
L 106.383253 293.871472 
L 111.018823 293.240042 
L 115.765352 292.789208 
L 123.077505 292.365267 
L 130.106827 292.01366 
L 134.014239 291.668237 
L 138.336737 291.103801 
L 139.089731 290.817162 
L 139.647178 290.315712 
L 139.736264 289.764027 
L 139.467866 289.20159 
L 138.908203 288.651316 
L 138.123552 288.156991 
L 137.176587 287.714582 
L 136.11611 287.367268 
L 134.998262 287.134302 
L 133.8884 287.046328 
L 131.857492 287.210444 
L 130.19844 287.552641 
L 129.193866 287.934756 
L 128.692026 288.270359 
L 128.6322 288.439793 
L 128.89084 288.825877 
L 129.160551 288.976967 
L 129.837517 288.941937 
L 131.793719 288.575531 
L 131.553063 288.549763 
L 129.922746 288.772441 
L 130.044153 288.758258 
L 130.592711 288.449519 
L 131.17121 288.33025 
L 133.287206 288.216845 
L 134.846749 288.186111 
L 140.069133 288.26133 
L 140.43732 288.520987 
L 143.790643 292.132876 
L 145.404512 293.394029 
L 147.301749 294.764788 
L 151.393588 297.845428 
L 158.310095 302.576441 
L 162.686895 305.267319 
L 166.01292 306.975435 
L 173.319569 310.464803 
L 181.403958 313.97629 
L 190.011158 317.476837 
L 207.373197 324.298399 
L 209.464997 324.960483 
L 213.665833 325.968732 
L 217.77041 326.706131 
L 221.909016 327.142483 
L 226.039939 327.187899 
L 230.109256 326.998044 
L 234.227359 326.57476 
L 250.578659 324.257584 
L 256.767929 323.711721 
L 256.767929 323.711721 
" style="fill:none;stroke:#008000;stroke-linecap:square;stroke-width:1.5;"/>
   </g>
   <g id="line2d_30">
    <path clip-path="url(#p43f8908a8a)" d="M 49.236372 328.542157 
L 49.143609 323.686926 
L 49.347077 321.813161 
L 49.735895 319.971735 
L 50.310579 318.169247 
L 51.083711 316.380491 
L 53.049806 312.843824 
L 55.43402 309.318657 
L 58.234805 305.885776 
L 61.429843 302.559638 
L 65.062778 299.317529 
L 69.123837 296.183639 
L 73.49385 293.210285 
L 78.14773 290.429589 
L 82.979707 287.851305 
L 87.975899 285.492116 
L 93.047982 283.352655 
L 98.217714 281.47129 
L 103.38736 279.844503 
L 108.665047 278.444435 
L 113.990503 277.250337 
L 119.454089 276.282008 
L 124.94577 275.495547 
L 130.51029 274.927476 
L 136.082442 274.534473 
L 144.352522 274.241682 
L 149.6052 274.240615 
L 154.525559 274.423087 
L 159.234629 274.794869 
L 166.05679 275.605542 
L 172.779711 276.673935 
L 182.257127 278.505889 
L 224.697366 286.701878 
L 234.666501 288.520712 
L 241.285801 289.518832 
L 247.704852 290.271349 
L 253.957369 290.761965 
L 259.921486 290.996618 
L 265.644331 290.988484 
L 271.005925 290.768039 
L 276.019465 290.364535 
L 282.699995 289.538218 
L 288.337694 288.565046 
L 291.528809 287.804505 
L 295.434416 286.637949 
L 298.267613 285.531464 
L 300.177334 284.519704 
L 301.443396 283.636996 
L 302.105966 282.96511 
L 302.142129 282.670792 
L 301.962907 282.56399 
L 301.456922 282.635327 
L 300.609746 282.937906 
L 298.553386 283.947536 
L 295.379343 285.919062 
L 292.630341 287.677763 
L 289.418952 289.49814 
L 278.603478 295.137834 
L 271.692149 298.841522 
L 268.716238 300.675264 
L 266.180241 302.480978 
L 264.144893 304.297012 
L 262.567794 306.079603 
L 261.385303 307.852407 
L 260.493624 309.565281 
L 259.874423 311.260487 
L 259.493309 312.878364 
L 259.319242 314.483309 
L 259.326514 316.864234 
L 259.572365 318.402084 
L 260.151989 319.691658 
L 261.163138 321.423093 
L 261.451981 322.569354 
L 261.451981 322.569354 
" style="fill:none;stroke:#ffa500;stroke-linecap:square;stroke-width:1.5;"/>
   </g>
   <g id="patch_12">
    <path d="M 46.601761 332.525 
L 46.601761 263.674296 
" style="fill:none;stroke:#000000;stroke-linecap:square;stroke-linejoin:miter;stroke-width:0.8;"/>
   </g>
   <g id="patch_13">
    <path d="M 313.398239 332.525 
L 313.398239 263.674296 
" style="fill:none;stroke:#000000;stroke-linecap:square;stroke-linejoin:miter;stroke-width:0.8;"/>
   </g>
   <g id="patch_14">
    <path d="M 46.601761 332.525 
L 313.398239 332.525 
" style="fill:none;stroke:#000000;stroke-linecap:square;stroke-linejoin:miter;stroke-width:0.8;"/>
   </g>
   <g id="patch_15">
    <path d="M 46.601761 263.674296 
L 313.398239 263.674296 
" style="fill:none;stroke:#000000;stroke-linecap:square;stroke-linejoin:miter;stroke-width:0.8;"/>
   </g>
   <g id="PathCollection_5">
    <g clip-path="url(#p43f8908a8a)">
     <use style="fill:#ff0000;stroke:#ff0000;stroke-width:5;" x="261.760211" xlink:href="#m9a34a87f0c" y="323.918662"/>
    </g>
   </g>
   <g id="PathCollection_6">
    <g clip-path="url(#p43f8908a8a)">
     <use style="fill:#0000ff;stroke:#0000ff;stroke-width:5;" x="55.208099" xlink:href="#m0399c82497" y="323.918662"/>
    </g>
   </g>
  </g>
 </g>
 <defs>
  <clipPath id="p52a65e006e">
   <rect height="236.674296" width="266.796479" x="46.601761" y="14.625"/>
  </clipPath>
  <clipPath id="p43f8908a8a">
   <rect height="68.850704" width="266.796479" x="46.601761" y="263.674296"/>
  </clipPath>
 </defs>
</svg>
