<?xml version="1.0" encoding="utf-8" standalone="no"?>
<!DOCTYPE svg PUBLIC "-//W3C//DTD SVG 1.1//EN"
  "http://www.w3.org/Graphics/SVG/1.1/DTD/svg11.dtd">
<!-- Created with matplotlib (http://matplotlib.org/) -->
<svg height="216pt" version="1.1" viewBox="0 0 432 216" width="432pt" xmlns="http://www.w3.org/2000/svg" xmlns:xlink="http://www.w3.org/1999/xlink">
 <defs>
  <style type="text/css">
*{stroke-linecap:butt;stroke-linejoin:round;}
  </style>
 </defs>
 <g id="figure_1">
  <g id="patch_1">
   <path d="M 0 216 
L 432 216 
L 432 0 
L 0 0 
z
" style="fill:#ffffff;"/>
  </g>
  <g id="axes_1">
   <g id="patch_2">
    <path d="M 39.94 188.12 
L 148.38 188.12 
L 148.38 13.32 
L 39.94 13.32 
z
" style="fill:#ffffff;"/>
   </g>
   <g id="matplotlib.axis_1">
    <g id="xtick_1">
     <g id="line2d_1">
      <path clip-path="url(#p5d24d30287)" d="M 39.94 188.12 
L 39.94 13.32 
" style="fill:none;stroke:#b0b0b0;stroke-linecap:square;stroke-width:0.8;"/>
     </g>
     <g id="line2d_2">
      <defs>
       <path d="M 0 0 
L 0 3.5 
" id="m348a34b1a6" style="stroke:#000000;stroke-width:0.8;"/>
      </defs>
      <g>
       <use style="stroke:#000000;stroke-width:0.8;" x="39.94" xlink:href="#m348a34b1a6" y="188.12"/>
      </g>
     </g>
     <g id="text_1">
      <!-- 0 -->
      <defs>
       <path d="M 31.78125 66.40625 
Q 24.171875 66.40625 20.328125 58.90625 
Q 16.5 51.421875 16.5 36.375 
Q 16.5 21.390625 20.328125 13.890625 
Q 24.171875 6.390625 31.78125 6.390625 
Q 39.453125 6.390625 43.28125 13.890625 
Q 47.125 21.390625 47.125 36.375 
Q 47.125 51.421875 43.28125 58.90625 
Q 39.453125 66.40625 31.78125 66.40625 
z
M 31.78125 74.21875 
Q 44.046875 74.21875 50.515625 64.515625 
Q 56.984375 54.828125 56.984375 36.375 
Q 56.984375 17.96875 50.515625 8.265625 
Q 44.046875 -1.421875 31.78125 -1.421875 
Q 19.53125 -1.421875 13.0625 8.265625 
Q 6.59375 17.96875 6.59375 36.375 
Q 6.59375 54.828125 13.0625 64.515625 
Q 19.53125 74.21875 31.78125 74.21875 
z
" id="DejaVuSans-30"/>
      </defs>
      <g transform="translate(36.75875 202.718437)scale(0.1 -0.1)">
       <use xlink:href="#DejaVuSans-30"/>
      </g>
     </g>
    </g>
    <g id="xtick_2">
     <g id="line2d_3">
      <path clip-path="url(#p5d24d30287)" d="M 83.665806 188.12 
L 83.665806 13.32 
" style="fill:none;stroke:#b0b0b0;stroke-linecap:square;stroke-width:0.8;"/>
     </g>
     <g id="line2d_4">
      <g>
       <use style="stroke:#000000;stroke-width:0.8;" x="83.665806" xlink:href="#m348a34b1a6" y="188.12"/>
      </g>
     </g>
     <g id="text_2">
      <!-- 10 -->
      <defs>
       <path d="M 12.40625 8.296875 
L 28.515625 8.296875 
L 28.515625 63.921875 
L 10.984375 60.40625 
L 10.984375 69.390625 
L 28.421875 72.90625 
L 38.28125 72.90625 
L 38.28125 8.296875 
L 54.390625 8.296875 
L 54.390625 0 
L 12.40625 0 
z
" id="DejaVuSans-31"/>
      </defs>
      <g transform="translate(77.303306 202.718437)scale(0.1 -0.1)">
       <use xlink:href="#DejaVuSans-31"/>
       <use x="63.623047" xlink:href="#DejaVuSans-30"/>
      </g>
     </g>
    </g>
    <g id="xtick_3">
     <g id="line2d_5">
      <path clip-path="url(#p5d24d30287)" d="M 127.391613 188.12 
L 127.391613 13.32 
" style="fill:none;stroke:#b0b0b0;stroke-linecap:square;stroke-width:0.8;"/>
     </g>
     <g id="line2d_6">
      <g>
       <use style="stroke:#000000;stroke-width:0.8;" x="127.391613" xlink:href="#m348a34b1a6" y="188.12"/>
      </g>
     </g>
     <g id="text_3">
      <!-- 20 -->
      <defs>
       <path d="M 19.1875 8.296875 
L 53.609375 8.296875 
L 53.609375 0 
L 7.328125 0 
L 7.328125 8.296875 
Q 12.9375 14.109375 22.625 23.890625 
Q 32.328125 33.6875 34.8125 36.53125 
Q 39.546875 41.84375 41.421875 45.53125 
Q 43.3125 49.21875 43.3125 52.78125 
Q 43.3125 58.59375 39.234375 62.25 
Q 35.15625 65.921875 28.609375 65.921875 
Q 23.96875 65.921875 18.8125 64.3125 
Q 13.671875 62.703125 7.8125 59.421875 
L 7.8125 69.390625 
Q 13.765625 71.78125 18.9375 73 
Q 24.125 74.21875 28.421875 74.21875 
Q 39.75 74.21875 46.484375 68.546875 
Q 53.21875 62.890625 53.21875 53.421875 
Q 53.21875 48.921875 51.53125 44.890625 
Q 49.859375 40.875 45.40625 35.40625 
Q 44.1875 33.984375 37.640625 27.21875 
Q 31.109375 20.453125 19.1875 8.296875 
z
" id="DejaVuSans-32"/>
      </defs>
      <g transform="translate(121.029113 202.718437)scale(0.1 -0.1)">
       <use xlink:href="#DejaVuSans-32"/>
       <use x="63.623047" xlink:href="#DejaVuSans-30"/>
      </g>
     </g>
    </g>
   </g>
   <g id="matplotlib.axis_2">
    <g id="ytick_1">
     <g id="line2d_7">
      <path clip-path="url(#p5d24d30287)" d="M 39.94 188.12 
L 148.38 188.12 
" style="fill:none;stroke:#b0b0b0;stroke-linecap:square;stroke-width:0.8;"/>
     </g>
     <g id="line2d_8">
      <defs>
       <path d="M 0 0 
L -3.5 0 
" id="mcb6ad37e6e" style="stroke:#000000;stroke-width:0.8;"/>
      </defs>
      <g>
       <use style="stroke:#000000;stroke-width:0.8;" x="39.94" xlink:href="#mcb6ad37e6e" y="188.12"/>
      </g>
     </g>
     <g id="text_4">
      <!-- 0.0 -->
      <defs>
       <path d="M 10.6875 12.40625 
L 21 12.40625 
L 21 0 
L 10.6875 0 
z
" id="DejaVuSans-2e"/>
      </defs>
      <g transform="translate(17.036875 191.919219)scale(0.1 -0.1)">
       <use xlink:href="#DejaVuSans-30"/>
       <use x="63.623047" xlink:href="#DejaVuSans-2e"/>
       <use x="95.410156" xlink:href="#DejaVuSans-30"/>
      </g>
     </g>
    </g>
    <g id="ytick_2">
     <g id="line2d_9">
      <path clip-path="url(#p5d24d30287)" d="M 39.94 163.925802 
L 148.38 163.925802 
" style="fill:none;stroke:#b0b0b0;stroke-linecap:square;stroke-width:0.8;"/>
     </g>
     <g id="line2d_10">
      <g>
       <use style="stroke:#000000;stroke-width:0.8;" x="39.94" xlink:href="#mcb6ad37e6e" y="163.925802"/>
      </g>
     </g>
     <g id="text_5">
      <!-- 2.5 -->
      <defs>
       <path d="M 10.796875 72.90625 
L 49.515625 72.90625 
L 49.515625 64.59375 
L 19.828125 64.59375 
L 19.828125 46.734375 
Q 21.96875 47.46875 24.109375 47.828125 
Q 26.265625 48.1875 28.421875 48.1875 
Q 40.625 48.1875 47.75 41.5 
Q 54.890625 34.8125 54.890625 23.390625 
Q 54.890625 11.625 47.5625 5.09375 
Q 40.234375 -1.421875 26.90625 -1.421875 
Q 22.3125 -1.421875 17.546875 -0.640625 
Q 12.796875 0.140625 7.71875 1.703125 
L 7.71875 11.625 
Q 12.109375 9.234375 16.796875 8.0625 
Q 21.484375 6.890625 26.703125 6.890625 
Q 35.15625 6.890625 40.078125 11.328125 
Q 45.015625 15.765625 45.015625 23.390625 
Q 45.015625 31 40.078125 35.4375 
Q 35.15625 39.890625 26.703125 39.890625 
Q 22.75 39.890625 18.8125 39.015625 
Q 14.890625 38.140625 10.796875 36.28125 
z
" id="DejaVuSans-35"/>
      </defs>
      <g transform="translate(17.036875 167.725021)scale(0.1 -0.1)">
       <use xlink:href="#DejaVuSans-32"/>
       <use x="63.623047" xlink:href="#DejaVuSans-2e"/>
       <use x="95.410156" xlink:href="#DejaVuSans-35"/>
      </g>
     </g>
    </g>
    <g id="ytick_3">
     <g id="line2d_11">
      <path clip-path="url(#p5d24d30287)" d="M 39.94 139.731604 
L 148.38 139.731604 
" style="fill:none;stroke:#b0b0b0;stroke-linecap:square;stroke-width:0.8;"/>
     </g>
     <g id="line2d_12">
      <g>
       <use style="stroke:#000000;stroke-width:0.8;" x="39.94" xlink:href="#mcb6ad37e6e" y="139.731604"/>
      </g>
     </g>
     <g id="text_6">
      <!-- 5.0 -->
      <g transform="translate(17.036875 143.530823)scale(0.1 -0.1)">
       <use xlink:href="#DejaVuSans-35"/>
       <use x="63.623047" xlink:href="#DejaVuSans-2e"/>
       <use x="95.410156" xlink:href="#DejaVuSans-30"/>
      </g>
     </g>
    </g>
    <g id="ytick_4">
     <g id="line2d_13">
      <path clip-path="url(#p5d24d30287)" d="M 39.94 115.537406 
L 148.38 115.537406 
" style="fill:none;stroke:#b0b0b0;stroke-linecap:square;stroke-width:0.8;"/>
     </g>
     <g id="line2d_14">
      <g>
       <use style="stroke:#000000;stroke-width:0.8;" x="39.94" xlink:href="#mcb6ad37e6e" y="115.537406"/>
      </g>
     </g>
     <g id="text_7">
      <!-- 7.5 -->
      <defs>
       <path d="M 8.203125 72.90625 
L 55.078125 72.90625 
L 55.078125 68.703125 
L 28.609375 0 
L 18.3125 0 
L 43.21875 64.59375 
L 8.203125 64.59375 
z
" id="DejaVuSans-37"/>
      </defs>
      <g transform="translate(17.036875 119.336624)scale(0.1 -0.1)">
       <use xlink:href="#DejaVuSans-37"/>
       <use x="63.623047" xlink:href="#DejaVuSans-2e"/>
       <use x="95.410156" xlink:href="#DejaVuSans-35"/>
      </g>
     </g>
    </g>
    <g id="ytick_5">
     <g id="line2d_15">
      <path clip-path="url(#p5d24d30287)" d="M 39.94 91.343208 
L 148.38 91.343208 
" style="fill:none;stroke:#b0b0b0;stroke-linecap:square;stroke-width:0.8;"/>
     </g>
     <g id="line2d_16">
      <g>
       <use style="stroke:#000000;stroke-width:0.8;" x="39.94" xlink:href="#mcb6ad37e6e" y="91.343208"/>
      </g>
     </g>
     <g id="text_8">
      <!-- 10.0 -->
      <g transform="translate(10.674375 95.142426)scale(0.1 -0.1)">
       <use xlink:href="#DejaVuSans-31"/>
       <use x="63.623047" xlink:href="#DejaVuSans-30"/>
       <use x="127.246094" xlink:href="#DejaVuSans-2e"/>
       <use x="159.033203" xlink:href="#DejaVuSans-30"/>
      </g>
     </g>
    </g>
    <g id="ytick_6">
     <g id="line2d_17">
      <path clip-path="url(#p5d24d30287)" d="M 39.94 67.14901 
L 148.38 67.14901 
" style="fill:none;stroke:#b0b0b0;stroke-linecap:square;stroke-width:0.8;"/>
     </g>
     <g id="line2d_18">
      <g>
       <use style="stroke:#000000;stroke-width:0.8;" x="39.94" xlink:href="#mcb6ad37e6e" y="67.14901"/>
      </g>
     </g>
     <g id="text_9">
      <!-- 12.5 -->
      <g transform="translate(10.674375 70.948228)scale(0.1 -0.1)">
       <use xlink:href="#DejaVuSans-31"/>
       <use x="63.623047" xlink:href="#DejaVuSans-32"/>
       <use x="127.246094" xlink:href="#DejaVuSans-2e"/>
       <use x="159.033203" xlink:href="#DejaVuSans-35"/>
      </g>
     </g>
    </g>
    <g id="ytick_7">
     <g id="line2d_19">
      <path clip-path="url(#p5d24d30287)" d="M 39.94 42.954811 
L 148.38 42.954811 
" style="fill:none;stroke:#b0b0b0;stroke-linecap:square;stroke-width:0.8;"/>
     </g>
     <g id="line2d_20">
      <g>
       <use style="stroke:#000000;stroke-width:0.8;" x="39.94" xlink:href="#mcb6ad37e6e" y="42.954811"/>
      </g>
     </g>
     <g id="text_10">
      <!-- 15.0 -->
      <g transform="translate(10.674375 46.75403)scale(0.1 -0.1)">
       <use xlink:href="#DejaVuSans-31"/>
       <use x="63.623047" xlink:href="#DejaVuSans-35"/>
       <use x="127.246094" xlink:href="#DejaVuSans-2e"/>
       <use x="159.033203" xlink:href="#DejaVuSans-30"/>
      </g>
     </g>
    </g>
    <g id="ytick_8">
     <g id="line2d_21">
      <path clip-path="url(#p5d24d30287)" d="M 39.94 18.760613 
L 148.38 18.760613 
" style="fill:none;stroke:#b0b0b0;stroke-linecap:square;stroke-width:0.8;"/>
     </g>
     <g id="line2d_22">
      <g>
       <use style="stroke:#000000;stroke-width:0.8;" x="39.94" xlink:href="#mcb6ad37e6e" y="18.760613"/>
      </g>
     </g>
     <g id="text_11">
      <!-- 17.5 -->
      <g transform="translate(10.674375 22.559832)scale(0.1 -0.1)">
       <use xlink:href="#DejaVuSans-31"/>
       <use x="63.623047" xlink:href="#DejaVuSans-37"/>
       <use x="127.246094" xlink:href="#DejaVuSans-2e"/>
       <use x="159.033203" xlink:href="#DejaVuSans-35"/>
      </g>
     </g>
    </g>
   </g>
   <g id="line2d_23">
    <path clip-path="url(#p5d24d30287)" d="M 39.94 188.046688 
L 41.689032 187.788197 
L 43.879695 186.595169 
L 45.187097 185.112424 
L 46.065985 183.80514 
L 47.373387 181.544481 
L 48.252276 179.271765 
L 49.126792 176.378776 
L 50.871452 169.22459 
L 52.187598 164.160876 
L 53.499373 160.288928 
L 54.369516 158.38004 
L 55.244032 156.791972 
L 56.555806 155.005193 
L 57.430323 154.11056 
L 58.742097 153.107163 
L 60.058244 152.499509 
L 62.235789 151.798357 
L 64.430824 150.630066 
L 67.487258 146.836979 
L 67.924516 146.590589 
L 68.361774 146.500485 
L 69.23629 146.69149 
L 72.301469 148.067768 
L 73.608871 148.669379 
L 74.48776 148.632101 
L 77.981452 148.272547 
L 83.670179 148.212959 
L 92.848226 148.308872 
L 95.909032 147.535244 
L 97.220806 147.162338 
L 98.974211 146.539059 
L 102.905161 144.570731 
L 105.095824 143.137407 
L 107.715 141.171064 
L 110.780179 138.865774 
L 115.590018 135.547849 
L 116.027276 135.427012 
L 118.650824 135.342251 
L 119.52534 135.105337 
L 120.837115 134.425656 
L 123.460663 132.585465 
L 126.084211 131.278673 
L 127.395985 131.151226 
L 128.266129 131.225461 
L 129.582276 131.570985 
L 130.89405 132.242666 
L 131.768566 132.907658 
L 132.63871 133.824899 
L 133.517598 135.102221 
L 134.392115 136.563591 
L 135.262258 138.401173 
L 136.578405 141.827761 
L 138.323065 147.274717 
L 140.072097 153.443471 
L 142.26276 161.935553 
L 148.38 186.693509 
L 148.38 186.693509 
" style="fill:none;stroke:#1f77b4;stroke-linecap:square;stroke-width:1.5;"/>
   </g>
   <g id="line2d_24">
    <path clip-path="url(#p5d24d30287)" d="M 39.94 188.12 
L 40.814516 187.810763 
L 41.251774 187.248035 
L 41.689032 186.113656 
L 42.563548 182.615055 
L 46.931756 161.695979 
L 56.555806 116.670512 
L 61.365645 92.317559 
L 63.114677 82.676373 
L 65.300968 69.160971 
L 70.106434 37.659463 
L 71.422581 30.907498 
L 72.297097 27.416772 
L 73.171613 24.720081 
L 74.041756 22.876685 
L 74.479015 22.246514 
L 74.920645 21.841196 
L 75.353531 21.653487 
L 75.795161 21.64381 
L 76.232419 21.794081 
L 76.665305 22.129054 
L 77.106935 22.650791 
L 77.981452 24.221302 
L 78.851595 26.543644 
L 79.730484 29.507109 
L 81.042258 35.006622 
L 82.34966 41.540771 
L 83.665806 48.930494 
L 85.847724 62.860299 
L 88.03115 77.988459 
L 95.464556 130.378338 
L 96.77637 137.595799 
L 98.088138 143.271039 
L 98.962676 146.080274 
L 99.837175 147.946497 
L 100.274444 148.428016 
L 100.711713 148.607667 
L 101.148943 148.532981 
L 101.586212 148.243114 
L 102.460704 147.208729 
L 104.209735 144.999066 
L 104.647004 144.668788 
L 105.084233 144.496862 
L 105.958719 144.508455 
L 106.833211 144.956229 
L 107.707749 145.829506 
L 108.582286 147.046367 
L 109.456778 148.628851 
L 110.331316 150.523522 
L 111.205854 152.876249 
L 112.080346 155.694896 
L 112.954844 159.139224 
L 114.266651 165.407279 
L 116.452851 176.550829 
L 117.764618 181.542635 
L 118.201887 182.937024 
L 118.201887 182.937024 
" style="fill:none;stroke:#ff7f0e;stroke-linecap:square;stroke-width:1.5;"/>
   </g>
   <g id="patch_3">
    <path d="M 39.94 188.12 
L 39.94 13.32 
" style="fill:none;stroke:#000000;stroke-linecap:square;stroke-linejoin:miter;stroke-width:0.8;"/>
   </g>
   <g id="patch_4">
    <path d="M 148.38 188.12 
L 148.38 13.32 
" style="fill:none;stroke:#000000;stroke-linecap:square;stroke-linejoin:miter;stroke-width:0.8;"/>
   </g>
   <g id="patch_5">
    <path d="M 39.94 188.12 
L 148.38 188.12 
" style="fill:none;stroke:#000000;stroke-linecap:square;stroke-linejoin:miter;stroke-width:0.8;"/>
   </g>
   <g id="patch_6">
    <path d="M 39.94 13.32 
L 148.38 13.32 
" style="fill:none;stroke:#000000;stroke-linecap:square;stroke-linejoin:miter;stroke-width:0.8;"/>
   </g>
  </g>
  <g id="axes_2">
   <g id="patch_7">
    <path d="M 175.09 188.12 
L 283.53 188.12 
L 283.53 13.32 
L 175.09 13.32 
z
" style="fill:#ffffff;"/>
   </g>
   <g id="matplotlib.axis_3">
    <g id="xtick_4">
     <g id="line2d_25">
      <path clip-path="url(#p21559a0c55)" d="M 175.09 188.12 
L 175.09 13.32 
" style="fill:none;stroke:#b0b0b0;stroke-linecap:square;stroke-width:0.8;"/>
     </g>
     <g id="line2d_26">
      <g>
       <use style="stroke:#000000;stroke-width:0.8;" x="175.09" xlink:href="#m348a34b1a6" y="188.12"/>
      </g>
     </g>
     <g id="text_12">
      <!-- 0 -->
      <g transform="translate(171.90875 202.718437)scale(0.1 -0.1)">
       <use xlink:href="#DejaVuSans-30"/>
      </g>
     </g>
    </g>
    <g id="xtick_5">
     <g id="line2d_27">
      <path clip-path="url(#p21559a0c55)" d="M 218.815806 188.12 
L 218.815806 13.32 
" style="fill:none;stroke:#b0b0b0;stroke-linecap:square;stroke-width:0.8;"/>
     </g>
     <g id="line2d_28">
      <g>
       <use style="stroke:#000000;stroke-width:0.8;" x="218.815806" xlink:href="#m348a34b1a6" y="188.12"/>
      </g>
     </g>
     <g id="text_13">
      <!-- 10 -->
      <g transform="translate(212.453306 202.718437)scale(0.1 -0.1)">
       <use xlink:href="#DejaVuSans-31"/>
       <use x="63.623047" xlink:href="#DejaVuSans-30"/>
      </g>
     </g>
    </g>
    <g id="xtick_6">
     <g id="line2d_29">
      <path clip-path="url(#p21559a0c55)" d="M 262.541613 188.12 
L 262.541613 13.32 
" style="fill:none;stroke:#b0b0b0;stroke-linecap:square;stroke-width:0.8;"/>
     </g>
     <g id="line2d_30">
      <g>
       <use style="stroke:#000000;stroke-width:0.8;" x="262.541613" xlink:href="#m348a34b1a6" y="188.12"/>
      </g>
     </g>
     <g id="text_14">
      <!-- 20 -->
      <g transform="translate(256.179113 202.718437)scale(0.1 -0.1)">
       <use xlink:href="#DejaVuSans-32"/>
       <use x="63.623047" xlink:href="#DejaVuSans-30"/>
      </g>
     </g>
    </g>
   </g>
   <g id="matplotlib.axis_4">
    <g id="ytick_9">
     <g id="line2d_31">
      <path clip-path="url(#p21559a0c55)" d="M 175.09 188.12 
L 283.53 188.12 
" style="fill:none;stroke:#b0b0b0;stroke-linecap:square;stroke-width:0.8;"/>
     </g>
     <g id="line2d_32">
      <g>
       <use style="stroke:#000000;stroke-width:0.8;" x="175.09" xlink:href="#mcb6ad37e6e" y="188.12"/>
      </g>
     </g>
     <g id="text_15">
      <!-- 0 -->
      <g transform="translate(161.7275 191.919219)scale(0.1 -0.1)">
       <use xlink:href="#DejaVuSans-30"/>
      </g>
     </g>
    </g>
    <g id="ytick_10">
     <g id="line2d_33">
      <path clip-path="url(#p21559a0c55)" d="M 175.09 150.301466 
L 283.53 150.301466 
" style="fill:none;stroke:#b0b0b0;stroke-linecap:square;stroke-width:0.8;"/>
     </g>
     <g id="line2d_34">
      <g>
       <use style="stroke:#000000;stroke-width:0.8;" x="175.09" xlink:href="#mcb6ad37e6e" y="150.301466"/>
      </g>
     </g>
     <g id="text_16">
      <!-- 1 -->
      <g transform="translate(161.7275 154.100685)scale(0.1 -0.1)">
       <use xlink:href="#DejaVuSans-31"/>
      </g>
     </g>
    </g>
    <g id="ytick_11">
     <g id="line2d_35">
      <path clip-path="url(#p21559a0c55)" d="M 175.09 112.482933 
L 283.53 112.482933 
" style="fill:none;stroke:#b0b0b0;stroke-linecap:square;stroke-width:0.8;"/>
     </g>
     <g id="line2d_36">
      <g>
       <use style="stroke:#000000;stroke-width:0.8;" x="175.09" xlink:href="#mcb6ad37e6e" y="112.482933"/>
      </g>
     </g>
     <g id="text_17">
      <!-- 2 -->
      <g transform="translate(161.7275 116.282152)scale(0.1 -0.1)">
       <use xlink:href="#DejaVuSans-32"/>
      </g>
     </g>
    </g>
    <g id="ytick_12">
     <g id="line2d_37">
      <path clip-path="url(#p21559a0c55)" d="M 175.09 74.664399 
L 283.53 74.664399 
" style="fill:none;stroke:#b0b0b0;stroke-linecap:square;stroke-width:0.8;"/>
     </g>
     <g id="line2d_38">
      <g>
       <use style="stroke:#000000;stroke-width:0.8;" x="175.09" xlink:href="#mcb6ad37e6e" y="74.664399"/>
      </g>
     </g>
     <g id="text_18">
      <!-- 3 -->
      <defs>
       <path d="M 40.578125 39.3125 
Q 47.65625 37.796875 51.625 33 
Q 55.609375 28.21875 55.609375 21.1875 
Q 55.609375 10.40625 48.1875 4.484375 
Q 40.765625 -1.421875 27.09375 -1.421875 
Q 22.515625 -1.421875 17.65625 -0.515625 
Q 12.796875 0.390625 7.625 2.203125 
L 7.625 11.71875 
Q 11.71875 9.328125 16.59375 8.109375 
Q 21.484375 6.890625 26.8125 6.890625 
Q 36.078125 6.890625 40.9375 10.546875 
Q 45.796875 14.203125 45.796875 21.1875 
Q 45.796875 27.640625 41.28125 31.265625 
Q 36.765625 34.90625 28.71875 34.90625 
L 20.21875 34.90625 
L 20.21875 43.015625 
L 29.109375 43.015625 
Q 36.375 43.015625 40.234375 45.921875 
Q 44.09375 48.828125 44.09375 54.296875 
Q 44.09375 59.90625 40.109375 62.90625 
Q 36.140625 65.921875 28.71875 65.921875 
Q 24.65625 65.921875 20.015625 65.03125 
Q 15.375 64.15625 9.8125 62.3125 
L 9.8125 71.09375 
Q 15.4375 72.65625 20.34375 73.4375 
Q 25.25 74.21875 29.59375 74.21875 
Q 40.828125 74.21875 47.359375 69.109375 
Q 53.90625 64.015625 53.90625 55.328125 
Q 53.90625 49.265625 50.4375 45.09375 
Q 46.96875 40.921875 40.578125 39.3125 
z
" id="DejaVuSans-33"/>
      </defs>
      <g transform="translate(161.7275 78.463618)scale(0.1 -0.1)">
       <use xlink:href="#DejaVuSans-33"/>
      </g>
     </g>
    </g>
    <g id="ytick_13">
     <g id="line2d_39">
      <path clip-path="url(#p21559a0c55)" d="M 175.09 36.845866 
L 283.53 36.845866 
" style="fill:none;stroke:#b0b0b0;stroke-linecap:square;stroke-width:0.8;"/>
     </g>
     <g id="line2d_40">
      <g>
       <use style="stroke:#000000;stroke-width:0.8;" x="175.09" xlink:href="#mcb6ad37e6e" y="36.845866"/>
      </g>
     </g>
     <g id="text_19">
      <!-- 4 -->
      <defs>
       <path d="M 37.796875 64.3125 
L 12.890625 25.390625 
L 37.796875 25.390625 
z
M 35.203125 72.90625 
L 47.609375 72.90625 
L 47.609375 25.390625 
L 58.015625 25.390625 
L 58.015625 17.1875 
L 47.609375 17.1875 
L 47.609375 0 
L 37.796875 0 
L 37.796875 17.1875 
L 4.890625 17.1875 
L 4.890625 26.703125 
z
" id="DejaVuSans-34"/>
      </defs>
      <g transform="translate(161.7275 40.645085)scale(0.1 -0.1)">
       <use xlink:href="#DejaVuSans-34"/>
      </g>
     </g>
    </g>
   </g>
   <g id="line2d_41">
    <path clip-path="url(#p21559a0c55)" d="M 175.09 186.431394 
L 175.964516 186.238707 
L 176.406147 186.402339 
L 176.839032 181.927814 
L 177.280663 175.338235 
L 178.588065 148.883738 
L 179.029695 141.364406 
L 179.466953 136.566099 
L 180.774355 126.807767 
L 181.648871 123.58012 
L 182.090502 123.493548 
L 182.523387 120.795935 
L 182.965018 116.170085 
L 183.402276 113.301207 
L 184.71405 100.628147 
L 185.146935 97.609773 
L 185.584194 95.86703 
L 186.021452 95.228211 
L 186.45871 95.648404 
L 186.895968 97.145113 
L 187.337598 98.191054 
L 187.774856 98.778733 
L 188.207742 99.147191 
L 188.649373 99.127012 
L 189.082258 98.46053 
L 189.519516 97.473655 
L 190.835663 93.301782 
L 191.705806 90.34765 
L 193.454839 85.380384 
L 195.208244 81.754868 
L 195.641129 81.753102 
L 196.08276 83.552536 
L 196.515645 87.817036 
L 196.952903 94.551378 
L 198.26905 121.901917 
L 199.139194 142.88917 
L 199.580824 154.919457 
L 200.018082 163.551953 
L 200.450968 163.405921 
L 201.767115 144.039865 
L 202.2 140.084902 
L 202.637258 138.728817 
L 203.074516 138.956595 
L 203.511774 140.815059 
L 204.38629 148.023608 
L 205.265179 159.975071 
L 206.135323 171.385858 
L 206.576953 176.46362 
L 207.009839 178.002524 
L 207.451469 176.665617 
L 208.321613 171.866148 
L 208.758871 170.889893 
L 209.63776 168.047347 
L 210.070645 167.657336 
L 210.507903 169.418618 
L 211.82405 180.080198 
L 212.261308 182.262632 
L 212.698566 183.705914 
L 213.131452 184.698945 
L 213.56871 185.23066 
L 214.005968 185.300518 
L 214.880484 184.523842 
L 216.192258 183.295987 
L 217.066774 182.790148 
L 217.508405 182.717987 
L 218.382921 182.991579 
L 221.876613 183.379776 
L 222.318244 183.358832 
L 223.625645 183.825128 
L 224.941792 183.623735 
L 225.816308 184.041865 
L 226.249194 183.335348 
L 226.690824 180.92857 
L 227.560968 170.694676 
L 227.998226 167.779121 
L 228.435484 166.686327 
L 231.059032 163.152765 
L 232.370806 162.310399 
L 233.245323 162.387102 
L 233.686953 162.55839 
L 234.124211 162.921093 
L 234.994355 163.309905 
L 235.873244 162.948045 
L 236.310502 162.656117 
L 236.743387 162.512478 
L 238.055161 162.390825 
L 238.929677 162.027566 
L 239.366935 161.729338 
L 240.245824 160.762504 
L 240.683082 160.661128 
L 241.553226 161.11028 
L 241.990484 161.177461 
L 242.427742 161.098439 
L 243.306631 160.778778 
L 243.743889 161.091853 
L 244.181147 161.574546 
L 245.05129 163.387521 
L 245.488548 164.427863 
L 246.800323 166.680387 
L 247.241953 166.551008 
L 247.674839 165.575487 
L 248.553727 163.167874 
L 248.990985 162.622825 
L 249.865502 162.185582 
L 250.30276 162.086063 
L 250.740018 160.452007 
L 251.177276 156.694724 
L 251.610161 153.984883 
L 252.051792 152.312891 
L 252.48905 152.062323 
L 252.926308 152.117216 
L 253.359194 151.370583 
L 254.67534 147.823143 
L 255.112598 146.936771 
L 255.545484 145.695882 
L 256.42 142.027867 
L 259.043548 129.140452 
L 260.796953 120.648772 
L 261.667097 115.85942 
L 262.983244 109.620922 
L 263.416129 107.001461 
L 266.04405 95.424003 
L 267.351452 89.634442 
L 268.667598 84.759399 
L 270.412258 79.809083 
L 271.728405 77.413198 
L 272.16129 76.947943 
L 272.598548 76.974122 
L 273.040179 77.278403 
L 273.473065 77.849292 
L 273.914695 78.11069 
L 275.222097 78.273133 
L 277.845645 76.994826 
L 278.287276 76.584464 
L 278.720161 75.960903 
L 279.161792 75.734201 
L 280.473566 75.759317 
L 280.910824 75.720572 
L 282.659856 76.078456 
L 283.53 76.49417 
L 283.53 76.49417 
" style="fill:none;stroke:#1f77b4;stroke-linecap:square;stroke-width:1.5;"/>
   </g>
   <g id="line2d_42">
    <path clip-path="url(#p21559a0c55)" d="M 175.09 180.585463 
L 175.522885 180.265374 
L 175.964516 176.983726 
L 176.839032 132.173746 
L 177.27629 121.276437 
L 177.713548 106.05628 
L 178.150806 102.313281 
L 178.583692 100.405964 
L 179.025323 97.389626 
L 179.462581 95.389981 
L 179.895466 94.932755 
L 180.337097 94.032484 
L 180.774355 92.069612 
L 181.648871 86.36584 
L 185.142563 60.031785 
L 186.45871 52.50544 
L 187.770484 46.488666 
L 188.645 42.946582 
L 189.515144 39.931154 
L 191.705806 33.6651 
L 193.017581 30.559265 
L 193.887724 29.055046 
L 194.766613 27.832712 
L 196.078387 26.489562 
L 196.515645 25.869366 
L 196.952903 25.537478 
L 197.385789 25.478618 
L 198.264677 25.561965 
L 198.697563 25.562102 
L 199.139194 25.412972 
L 199.572079 25.04494 
L 201.325484 22.444296 
L 202.195627 21.742087 
L 202.637258 21.5634 
L 203.074516 21.568887 
L 203.507402 21.90233 
L 204.381918 23.035508 
L 204.819176 24.07958 
L 207.447097 32.801332 
L 207.884355 33.546517 
L 208.321613 33.956852 
L 208.758871 34.127453 
L 209.191756 34.476396 
L 210.503531 36.628617 
L 211.382419 37.307734 
L 212.256935 37.340291 
L 213.56871 38.494395 
L 215.317742 38.484985 
L 216.192258 38.240155 
L 216.625144 38.328016 
L 217.49966 38.948326 
L 218.815806 40.255362 
L 219.690323 40.467788 
L 220.560466 41.007735 
L 221.876613 41.470026 
L 222.313871 41.443737 
L 223.18115 40.741843 
L 223.618419 40.22444 
L 224.055689 39.431909 
L 224.930227 37.173676 
L 226.679258 32.003892 
L 227.553751 29.971762 
L 229.302749 27.317119 
L 230.177287 26.229891 
L 231.92637 24.643883 
L 232.363639 24.932199 
L 233.238138 26.386047 
L 234.549946 28.727433 
L 234.987175 29.766119 
L 235.424444 31.169121 
L 235.861713 33.381346 
L 236.298943 36.416086 
L 236.736212 40.720775 
L 237.610704 53.175764 
L 241.108719 112.949937 
L 241.983211 123.830437 
L 242.857749 132.13663 
L 243.295018 135.144625 
L 243.732286 137.251974 
L 244.169555 138.34008 
L 244.606778 138.897773 
L 245.044047 138.532967 
L 245.481316 137.020991 
L 246.355854 131.939056 
L 246.793077 128.357687 
L 247.667575 118.284152 
L 248.979382 101.53752 
L 249.416651 96.843014 
L 249.85388 93.93202 
L 250.291149 94.412588 
L 250.728418 98.108346 
L 251.602851 111.082677 
L 252.477349 124.345309 
L 253.351887 135.100523 
L 253.351887 135.100523 
" style="fill:none;stroke:#ff7f0e;stroke-linecap:square;stroke-width:1.5;"/>
   </g>
   <g id="patch_8">
    <path d="M 175.09 188.12 
L 175.09 13.32 
" style="fill:none;stroke:#000000;stroke-linecap:square;stroke-linejoin:miter;stroke-width:0.8;"/>
   </g>
   <g id="patch_9">
    <path d="M 283.53 188.12 
L 283.53 13.32 
" style="fill:none;stroke:#000000;stroke-linecap:square;stroke-linejoin:miter;stroke-width:0.8;"/>
   </g>
   <g id="patch_10">
    <path d="M 175.09 188.12 
L 283.53 188.12 
" style="fill:none;stroke:#000000;stroke-linecap:square;stroke-linejoin:miter;stroke-width:0.8;"/>
   </g>
   <g id="patch_11">
    <path d="M 175.09 13.32 
L 283.53 13.32 
" style="fill:none;stroke:#000000;stroke-linecap:square;stroke-linejoin:miter;stroke-width:0.8;"/>
   </g>
  </g>
  <g id="axes_3">
   <g id="patch_12">
    <path d="M 310.24 188.12 
L 418.68 188.12 
L 418.68 13.32 
L 310.24 13.32 
z
" style="fill:#ffffff;"/>
   </g>
   <g id="matplotlib.axis_5">
    <g id="xtick_7">
     <g id="line2d_43">
      <path clip-path="url(#p2042399889)" d="M 310.24 188.12 
L 310.24 13.32 
" style="fill:none;stroke:#b0b0b0;stroke-linecap:square;stroke-width:0.8;"/>
     </g>
     <g id="line2d_44">
      <g>
       <use style="stroke:#000000;stroke-width:0.8;" x="310.24" xlink:href="#m348a34b1a6" y="188.12"/>
      </g>
     </g>
     <g id="text_20">
      <!-- 0 -->
      <g transform="translate(307.05875 202.718437)scale(0.1 -0.1)">
       <use xlink:href="#DejaVuSans-30"/>
      </g>
     </g>
    </g>
    <g id="xtick_8">
     <g id="line2d_45">
      <path clip-path="url(#p2042399889)" d="M 353.965806 188.12 
L 353.965806 13.32 
" style="fill:none;stroke:#b0b0b0;stroke-linecap:square;stroke-width:0.8;"/>
     </g>
     <g id="line2d_46">
      <g>
       <use style="stroke:#000000;stroke-width:0.8;" x="353.965806" xlink:href="#m348a34b1a6" y="188.12"/>
      </g>
     </g>
     <g id="text_21">
      <!-- 10 -->
      <g transform="translate(347.603306 202.718437)scale(0.1 -0.1)">
       <use xlink:href="#DejaVuSans-31"/>
       <use x="63.623047" xlink:href="#DejaVuSans-30"/>
      </g>
     </g>
    </g>
    <g id="xtick_9">
     <g id="line2d_47">
      <path clip-path="url(#p2042399889)" d="M 397.691613 188.12 
L 397.691613 13.32 
" style="fill:none;stroke:#b0b0b0;stroke-linecap:square;stroke-width:0.8;"/>
     </g>
     <g id="line2d_48">
      <g>
       <use style="stroke:#000000;stroke-width:0.8;" x="397.691613" xlink:href="#m348a34b1a6" y="188.12"/>
      </g>
     </g>
     <g id="text_22">
      <!-- 20 -->
      <g transform="translate(391.329113 202.718437)scale(0.1 -0.1)">
       <use xlink:href="#DejaVuSans-32"/>
       <use x="63.623047" xlink:href="#DejaVuSans-30"/>
      </g>
     </g>
    </g>
   </g>
   <g id="matplotlib.axis_6">
    <g id="ytick_14">
     <g id="line2d_49">
      <path clip-path="url(#p2042399889)" d="M 310.24 188.12 
L 418.68 188.12 
" style="fill:none;stroke:#b0b0b0;stroke-linecap:square;stroke-width:0.8;"/>
     </g>
     <g id="line2d_50">
      <g>
       <use style="stroke:#000000;stroke-width:0.8;" x="310.24" xlink:href="#mcb6ad37e6e" y="188.12"/>
      </g>
     </g>
     <g id="text_23">
      <!-- 0 -->
      <g transform="translate(296.8775 191.919219)scale(0.1 -0.1)">
       <use xlink:href="#DejaVuSans-30"/>
      </g>
     </g>
    </g>
    <g id="ytick_15">
     <g id="line2d_51">
      <path clip-path="url(#p2042399889)" d="M 310.24 160.646519 
L 418.68 160.646519 
" style="fill:none;stroke:#b0b0b0;stroke-linecap:square;stroke-width:0.8;"/>
     </g>
     <g id="line2d_52">
      <g>
       <use style="stroke:#000000;stroke-width:0.8;" x="310.24" xlink:href="#mcb6ad37e6e" y="160.646519"/>
      </g>
     </g>
     <g id="text_24">
      <!-- 1 -->
      <g transform="translate(296.8775 164.445738)scale(0.1 -0.1)">
       <use xlink:href="#DejaVuSans-31"/>
      </g>
     </g>
    </g>
    <g id="ytick_16">
     <g id="line2d_53">
      <path clip-path="url(#p2042399889)" d="M 310.24 133.173039 
L 418.68 133.173039 
" style="fill:none;stroke:#b0b0b0;stroke-linecap:square;stroke-width:0.8;"/>
     </g>
     <g id="line2d_54">
      <g>
       <use style="stroke:#000000;stroke-width:0.8;" x="310.24" xlink:href="#mcb6ad37e6e" y="133.173039"/>
      </g>
     </g>
     <g id="text_25">
      <!-- 2 -->
      <g transform="translate(296.8775 136.972258)scale(0.1 -0.1)">
       <use xlink:href="#DejaVuSans-32"/>
      </g>
     </g>
    </g>
    <g id="ytick_17">
     <g id="line2d_55">
      <path clip-path="url(#p2042399889)" d="M 310.24 105.699558 
L 418.68 105.699558 
" style="fill:none;stroke:#b0b0b0;stroke-linecap:square;stroke-width:0.8;"/>
     </g>
     <g id="line2d_56">
      <g>
       <use style="stroke:#000000;stroke-width:0.8;" x="310.24" xlink:href="#mcb6ad37e6e" y="105.699558"/>
      </g>
     </g>
     <g id="text_26">
      <!-- 3 -->
      <g transform="translate(296.8775 109.498777)scale(0.1 -0.1)">
       <use xlink:href="#DejaVuSans-33"/>
      </g>
     </g>
    </g>
    <g id="ytick_18">
     <g id="line2d_57">
      <path clip-path="url(#p2042399889)" d="M 310.24 78.226078 
L 418.68 78.226078 
" style="fill:none;stroke:#b0b0b0;stroke-linecap:square;stroke-width:0.8;"/>
     </g>
     <g id="line2d_58">
      <g>
       <use style="stroke:#000000;stroke-width:0.8;" x="310.24" xlink:href="#mcb6ad37e6e" y="78.226078"/>
      </g>
     </g>
     <g id="text_27">
      <!-- 4 -->
      <g transform="translate(296.8775 82.025297)scale(0.1 -0.1)">
       <use xlink:href="#DejaVuSans-34"/>
      </g>
     </g>
    </g>
    <g id="ytick_19">
     <g id="line2d_59">
      <path clip-path="url(#p2042399889)" d="M 310.24 50.752597 
L 418.68 50.752597 
" style="fill:none;stroke:#b0b0b0;stroke-linecap:square;stroke-width:0.8;"/>
     </g>
     <g id="line2d_60">
      <g>
       <use style="stroke:#000000;stroke-width:0.8;" x="310.24" xlink:href="#mcb6ad37e6e" y="50.752597"/>
      </g>
     </g>
     <g id="text_28">
      <!-- 5 -->
      <g transform="translate(296.8775 54.551816)scale(0.1 -0.1)">
       <use xlink:href="#DejaVuSans-35"/>
      </g>
     </g>
    </g>
    <g id="ytick_20">
     <g id="line2d_61">
      <path clip-path="url(#p2042399889)" d="M 310.24 23.279117 
L 418.68 23.279117 
" style="fill:none;stroke:#b0b0b0;stroke-linecap:square;stroke-width:0.8;"/>
     </g>
     <g id="line2d_62">
      <g>
       <use style="stroke:#000000;stroke-width:0.8;" x="310.24" xlink:href="#mcb6ad37e6e" y="23.279117"/>
      </g>
     </g>
     <g id="text_29">
      <!-- 6 -->
      <defs>
       <path d="M 33.015625 40.375 
Q 26.375 40.375 22.484375 35.828125 
Q 18.609375 31.296875 18.609375 23.390625 
Q 18.609375 15.53125 22.484375 10.953125 
Q 26.375 6.390625 33.015625 6.390625 
Q 39.65625 6.390625 43.53125 10.953125 
Q 47.40625 15.53125 47.40625 23.390625 
Q 47.40625 31.296875 43.53125 35.828125 
Q 39.65625 40.375 33.015625 40.375 
z
M 52.59375 71.296875 
L 52.59375 62.3125 
Q 48.875 64.0625 45.09375 64.984375 
Q 41.3125 65.921875 37.59375 65.921875 
Q 27.828125 65.921875 22.671875 59.328125 
Q 17.53125 52.734375 16.796875 39.40625 
Q 19.671875 43.65625 24.015625 45.921875 
Q 28.375 48.1875 33.59375 48.1875 
Q 44.578125 48.1875 50.953125 41.515625 
Q 57.328125 34.859375 57.328125 23.390625 
Q 57.328125 12.15625 50.6875 5.359375 
Q 44.046875 -1.421875 33.015625 -1.421875 
Q 20.359375 -1.421875 13.671875 8.265625 
Q 6.984375 17.96875 6.984375 36.375 
Q 6.984375 53.65625 15.1875 63.9375 
Q 23.390625 74.21875 37.203125 74.21875 
Q 40.921875 74.21875 44.703125 73.484375 
Q 48.484375 72.75 52.59375 71.296875 
z
" id="DejaVuSans-36"/>
      </defs>
      <g transform="translate(296.8775 27.078336)scale(0.1 -0.1)">
       <use xlink:href="#DejaVuSans-36"/>
      </g>
     </g>
    </g>
   </g>
   <g id="line2d_63">
    <path clip-path="url(#p2042399889)" d="M 310.24 188.12 
L 310.677258 187.281635 
L 311.114516 187.144452 
L 311.556147 185.903073 
L 311.989032 139.511651 
L 312.430663 131.752589 
L 312.863548 111.535699 
L 313.300806 116.452814 
L 313.738065 131.004356 
L 314.179695 123.037699 
L 314.616953 150.495213 
L 315.049839 162.518252 
L 315.487097 159.03971 
L 315.924355 159.38228 
L 316.365985 171.290317 
L 316.798871 170.522038 
L 317.240502 184.285168 
L 317.673387 143.849742 
L 318.115018 119.139078 
L 318.552276 145.103898 
L 318.985161 134.486465 
L 319.426792 144.206275 
L 319.86405 150.047737 
L 320.296935 164.590196 
L 320.734194 174.334458 
L 321.171452 170.147278 
L 321.60871 159.004737 
L 322.045968 144.425475 
L 322.487598 143.491829 
L 323.357742 143.178804 
L 323.799373 143.581393 
L 324.232258 148.336579 
L 324.669516 151.759267 
L 325.106774 157.279758 
L 325.544032 160.63524 
L 325.985663 162.410657 
L 326.418548 166.337078 
L 326.855806 167.938865 
L 327.293065 168.66568 
L 327.730323 171.86333 
L 328.167581 171.834641 
L 328.604839 171.400728 
L 329.042097 173.48646 
L 329.483727 174.056229 
L 329.916613 175.00597 
L 330.358244 174.055427 
L 330.791129 179.875891 
L 331.23276 174.793049 
L 332.102903 137.719314 
L 332.973047 115.53934 
L 333.41905 120.73209 
L 333.856308 118.023546 
L 334.289194 99.139804 
L 334.730824 57.028181 
L 335.168082 30.544408 
L 335.600968 70.028604 
L 336.475484 109.055321 
L 337.35 138.427286 
L 338.224516 149.299522 
L 338.661774 144.981623 
L 339.099032 148.55842 
L 339.973548 144.399496 
L 340.415179 137.252321 
L 340.848065 136.254257 
L 341.285323 140.985419 
L 341.726953 142.06653 
L 342.159839 145.843512 
L 343.038727 155.11191 
L 343.471613 158.58063 
L 343.908871 147.865174 
L 344.346129 148.392816 
L 344.78776 175.694795 
L 345.220645 182.752121 
L 345.657903 174.743908 
L 346.095161 160.888052 
L 346.532419 158.242768 
L 346.97405 163.038752 
L 347.848566 173.918599 
L 348.281452 176.202202 
L 348.71871 177.891622 
L 349.155968 178.702704 
L 350.030484 182.374637 
L 350.467742 182.969126 
L 350.905 183.989709 
L 351.342258 184.514266 
L 351.783889 185.841437 
L 352.216774 185.73355 
L 352.658405 186.791677 
L 353.09129 186.643951 
L 353.970179 187.598043 
L 354.403065 187.630233 
L 354.840323 187.109758 
L 355.719211 187.813253 
L 356.152097 186.958642 
L 356.593727 187.166925 
L 357.026613 187.627008 
L 357.468244 187.360418 
L 357.901129 186.441651 
L 358.338387 186.597519 
L 358.775645 185.547458 
L 359.212903 184.083335 
L 359.650161 183.860975 
L 360.091792 185.075814 
L 360.52905 185.887447 
L 360.966308 185.074766 
L 361.399194 169.908863 
L 362.278082 125.519165 
L 362.710968 143.690808 
L 363.148226 166.718935 
L 363.585484 179.251586 
L 364.027115 180.159398 
L 364.464373 181.993332 
L 364.901631 180.577788 
L 365.334516 181.81891 
L 365.771774 181.12892 
L 366.209032 182.184422 
L 366.650663 183.629445 
L 367.087921 184.39009 
L 367.520806 185.404368 
L 367.962437 186.947781 
L 368.395323 187.189918 
L 368.836953 186.664418 
L 369.274211 185.392464 
L 369.711469 186.543046 
L 370.144355 185.803497 
L 370.581613 185.799779 
L 371.023244 185.059425 
L 371.460502 184.671453 
L 371.893387 185.856295 
L 372.335018 186.11481 
L 372.767903 186.234699 
L 373.205161 185.258726 
L 374.079677 184.949588 
L 374.958566 182.433963 
L 375.395824 182.797246 
L 375.833082 184.812711 
L 376.265968 184.134023 
L 376.703226 184.886052 
L 377.577742 182.820735 
L 378.015 183.074508 
L 378.456631 182.977568 
L 378.893889 183.59298 
L 379.331147 183.46521 
L 380.20129 180.147322 
L 380.638548 179.937602 
L 381.080179 181.805826 
L 381.513065 181.015108 
L 382.391953 184.139274 
L 382.824839 180.214726 
L 383.266469 178.192987 
L 383.703727 180.228799 
L 384.140985 183.908031 
L 384.578244 185.627578 
L 385.015502 186.183599 
L 385.45276 185.314367 
L 385.890018 134.85214 
L 386.327276 129.567835 
L 386.760161 158.461787 
L 387.201792 174.056403 
L 387.63905 180.76978 
L 388.076308 176.140494 
L 388.509194 178.074689 
L 388.950824 179.034183 
L 389.82534 176.601561 
L 390.262598 171.415072 
L 390.695484 176.269366 
L 391.137115 175.822115 
L 392.007258 170.707172 
L 392.444516 166.581196 
L 392.881774 169.026106 
L 393.319032 167.266608 
L 393.760663 164.416313 
L 394.193548 169.739177 
L 394.630806 166.197861 
L 395.946953 160.82486 
L 396.384211 157.159172 
L 396.817097 161.409861 
L 397.254355 161.996463 
L 397.695985 163.277309 
L 398.133244 162.407908 
L 398.566129 156.415222 
L 399.003387 148.499891 
L 399.440645 160.803898 
L 399.882276 167.982378 
L 400.315161 169.995055 
L 401.631308 163.227555 
L 402.501452 161.119519 
L 402.93871 160.980301 
L 403.38034 160.284847 
L 403.817598 158.566367 
L 404.250484 163.010842 
L 404.692115 162.268172 
L 405.562258 160.155102 
L 405.999516 157.698143 
L 406.441147 158.359752 
L 407.31129 165.229136 
L 408.190179 157.540313 
L 408.623065 146.843709 
L 409.497581 160.705498 
L 409.939211 164.154462 
L 410.372097 169.463274 
L 411.246613 152.343586 
L 411.688244 159.694374 
L 412.121129 160.028114 
L 412.56276 174.655923 
L 412.995645 173.704014 
L 413.437276 170.850058 
L 413.870161 158.483438 
L 414.311792 176.851257 
L 414.74905 186.187549 
L 415.623566 183.321142 
L 416.060824 183.036318 
L 416.49371 180.660885 
L 416.930968 180.022727 
L 417.809856 178.312287 
L 418.242742 175.554571 
L 418.68 175.14268 
L 418.68 175.14268 
" style="fill:none;stroke:#1f77b4;stroke-linecap:square;stroke-width:1.5;"/>
   </g>
   <g id="line2d_64">
    <path clip-path="url(#p2042399889)" d="M 310.24 188.12 
L 310.672885 184.784663 
L 311.114516 162.784755 
L 311.551774 24.384639 
L 311.989032 21.64381 
L 312.42629 108.720075 
L 312.863548 64.699723 
L 313.300806 93.94685 
L 313.733692 94.830996 
L 314.612581 132.770637 
L 315.045466 138.299395 
L 315.487097 149.686022 
L 315.924355 157.398642 
L 316.798871 144.412694 
L 317.231756 143.201509 
L 318.110645 147.595621 
L 318.985161 150.958206 
L 319.422419 152.168579 
L 319.859677 152.199778 
L 320.292563 151.211395 
L 321.171452 154.605334 
L 321.60871 155.116889 
L 322.041595 154.618655 
L 322.920484 156.862692 
L 323.353369 156.470831 
L 323.795 158.025146 
L 324.232258 157.120666 
L 324.665144 158.638601 
L 325.53966 159.387872 
L 326.414176 165.769801 
L 327.293065 170.045117 
L 327.72595 170.858282 
L 328.167581 169.625605 
L 328.604839 169.996087 
L 329.037724 169.519131 
L 329.479355 170.454027 
L 329.916613 170.804806 
L 330.353871 173.146516 
L 330.791129 173.883602 
L 331.228387 173.81939 
L 331.665645 170.832176 
L 333.414677 151.52406 
L 333.847563 150.760496 
L 334.722079 158.361187 
L 336.475484 177.781556 
L 336.912742 178.828994 
L 337.345627 176.582514 
L 337.787258 172.443699 
L 339.09466 154.820853 
L 339.969176 139.868399 
L 340.406434 132.243925 
L 342.155466 118.298287 
L 343.471613 123.733176 
L 343.908871 124.428771 
L 344.341756 123.459668 
L 344.779015 125.308582 
L 345.653531 127.624661 
L 346.095161 132.314526 
L 346.532419 134.256869 
L 346.965305 132.478098 
L 347.406935 129.184798 
L 347.844194 123.995777 
L 348.281452 123.665858 
L 348.71871 125.648545 
L 349.151595 126.097886 
L 349.593226 130.942317 
L 350.467742 134.574751 
L 350.900627 137.485095 
L 351.342258 138.761408 
L 351.775144 137.846018 
L 352.216774 139.84314 
L 352.64966 139.626472 
L 353.09129 141.346058 
L 353.528548 140.604554 
L 353.965806 142.13782 
L 354.398692 141.601124 
L 354.840323 142.624571 
L 355.277581 141.10461 
L 355.710466 141.82297 
L 356.147724 143.718759 
L 356.589355 146.367679 
L 357.026613 146.880188 
L 357.463871 147.080632 
L 357.893927 145.558513 
L 358.33115 144.967854 
L 358.768419 146.712955 
L 359.205689 149.303792 
L 360.080227 157.090621 
L 360.95472 162.635977 
L 361.829258 165.713481 
L 362.266481 163.563879 
L 363.14102 158.119205 
L 364.015519 163.14829 
L 364.452749 162.48235 
L 364.890018 161.334378 
L 365.764556 153.291525 
L 366.201825 151.576614 
L 366.639095 150.795452 
L 367.07637 147.041477 
L 367.950869 131.353432 
L 368.388138 128.923196 
L 368.825407 127.293456 
L 369.262676 128.595181 
L 370.137175 138.516896 
L 370.574444 140.523593 
L 371.011713 141.142753 
L 371.448943 141.504353 
L 371.886212 137.973967 
L 372.760704 120.539503 
L 373.197973 115.604162 
L 373.635242 112.839139 
L 374.072511 108.990593 
L 374.509735 106.295038 
L 374.947004 105.78385 
L 375.384233 108.850121 
L 376.258719 123.560475 
L 377.133211 132.109308 
L 377.57048 134.842512 
L 378.007749 136.115019 
L 378.445018 138.665094 
L 379.319555 145.462161 
L 379.756778 147.714251 
L 380.194047 147.880255 
L 381.068585 143.867459 
L 381.505854 143.023625 
L 381.943077 141.065758 
L 382.380346 138.256659 
L 382.817575 136.437917 
L 383.254844 136.783056 
L 383.692113 139.829382 
L 385.00388 155.988305 
L 385.441149 151.969028 
L 385.878418 140.806125 
L 386.315634 132.983501 
L 386.752851 135.139966 
L 387.19012 134.842247 
L 387.627349 134.255101 
L 388.064618 135.032516 
L 388.501887 138.102099 
L 388.501887 138.102099 
" style="fill:none;stroke:#ff7f0e;stroke-linecap:square;stroke-width:1.5;"/>
   </g>
   <g id="patch_13">
    <path d="M 310.24 188.12 
L 310.24 13.32 
" style="fill:none;stroke:#000000;stroke-linecap:square;stroke-linejoin:miter;stroke-width:0.8;"/>
   </g>
   <g id="patch_14">
    <path d="M 418.68 188.12 
L 418.68 13.32 
" style="fill:none;stroke:#000000;stroke-linecap:square;stroke-linejoin:miter;stroke-width:0.8;"/>
   </g>
   <g id="patch_15">
    <path d="M 310.24 188.12 
L 418.68 188.12 
" style="fill:none;stroke:#000000;stroke-linecap:square;stroke-linejoin:miter;stroke-width:0.8;"/>
   </g>
   <g id="patch_16">
    <path d="M 310.24 13.32 
L 418.68 13.32 
" style="fill:none;stroke:#000000;stroke-linecap:square;stroke-linejoin:miter;stroke-width:0.8;"/>
   </g>
  </g>
  <g id="axes_4">
   <g id="line2d_65">
    <path clip-path="url(#p5d24d30287)" d="M 39.94 188.12 
L 44.749839 187.998652 
L 46.940502 187.740221 
L 48.685161 187.347439 
L 49.996935 186.869428 
L 51.30871 186.19845 
L 53.057742 185.033488 
L 55.244032 183.277567 
L 58.304839 180.502869 
L 63.556308 175.38886 
L 66.617115 172.180466 
L 77.111308 160.712774 
L 98.974211 136.979444 
L 103.779677 131.401605 
L 108.156631 125.973379 
L 112.524839 120.171822 
L 117.33905 113.392254 
L 123.460663 104.476819 
L 135.262258 86.818749 
L 137.448548 84.081892 
L 139.197581 82.183803 
L 140.946613 80.581091 
L 142.695645 79.299623 
L 144.44905 78.352744 
L 145.760824 77.87146 
L 147.068226 77.579751 
L 148.38 77.469899 
L 148.38 77.469899 
" style="fill:none;stroke:#1f77b4;stroke-dasharray:5.55,2.4;stroke-dashoffset:0;stroke-width:1.5;"/>
   </g>
   <g id="line2d_66">
    <path clip-path="url(#p5d24d30287)" d="M 39.94 188.12 
L 42.12629 188.037976 
L 43.433692 187.767655 
L 44.745466 187.269785 
L 46.061613 186.547383 
L 47.369015 185.612135 
L 48.685161 184.453286 
L 50.429821 182.581754 
L 52.178853 180.325272 
L 53.932258 177.679321 
L 55.676918 174.655511 
L 57.42595 171.220666 
L 59.179355 167.36143 
L 61.365645 161.956734 
L 63.547563 155.871984 
L 65.738226 148.980482 
L 67.924516 141.242307 
L 70.106434 132.668959 
L 72.734355 121.437138 
L 81.916774 81.269803 
L 84.540323 71.300917 
L 86.726613 63.888967 
L 88.905689 57.393272 
L 90.65472 52.853691 
L 92.403751 48.920894 
L 94.152749 45.578337 
L 95.901825 42.777838 
L 97.650869 40.429874 
L 99.837175 37.92743 
L 104.209735 33.081932 
L 109.456778 27.060146 
L 111.643077 24.907748 
L 113.392113 23.496271 
L 114.70388 22.690918 
L 116.015634 22.131513 
L 117.327349 21.783045 
L 118.201887 21.64381 
L 118.201887 21.64381 
" style="fill:none;stroke:#ff7f0e;stroke-dasharray:5.55,2.4;stroke-dashoffset:0;stroke-width:1.5;"/>
   </g>
   <g id="patch_17">
    <path d="M 39.94 188.12 
L 39.94 13.32 
" style="fill:none;stroke:#000000;stroke-linecap:square;stroke-linejoin:miter;stroke-width:0.8;"/>
   </g>
   <g id="patch_18">
    <path d="M 148.38 188.12 
L 148.38 13.32 
" style="fill:none;stroke:#000000;stroke-linecap:square;stroke-linejoin:miter;stroke-width:0.8;"/>
   </g>
   <g id="patch_19">
    <path d="M 39.94 188.12 
L 148.38 188.12 
" style="fill:none;stroke:#000000;stroke-linecap:square;stroke-linejoin:miter;stroke-width:0.8;"/>
   </g>
   <g id="patch_20">
    <path d="M 39.94 13.32 
L 148.38 13.32 
" style="fill:none;stroke:#000000;stroke-linecap:square;stroke-linejoin:miter;stroke-width:0.8;"/>
   </g>
  </g>
  <g id="axes_5">
   <g id="line2d_67">
    <path clip-path="url(#p2042399889)" d="M 310.24 180.174545 
L 311.556147 180.094788 
L 312.430663 178.02749 
L 313.300806 175.125185 
L 314.616953 171.967298 
L 316.365985 169.99626 
L 316.798871 169.65342 
L 317.240502 169.577202 
L 317.673387 168.714739 
L 318.115018 167.343719 
L 319.86405 163.830341 
L 320.296935 163.371939 
L 321.171452 162.746982 
L 321.60871 162.174036 
L 324.669516 156.295085 
L 325.985663 154.636351 
L 327.293065 153.432013 
L 329.916613 151.639648 
L 331.23276 150.934622 
L 331.665645 150.302599 
L 332.535789 148.100059 
L 334.289194 142.206269 
L 336.042598 132.269765 
L 336.917115 129.474501 
L 337.787258 127.629452 
L 339.53629 124.41799 
L 340.415179 122.546621 
L 341.726953 119.693316 
L 342.601469 118.130771 
L 343.908871 116.113584 
L 344.346129 115.33181 
L 344.78776 115.084855 
L 345.220645 114.980279 
L 345.657903 114.717057 
L 347.411308 112.719563 
L 348.71871 112.006641 
L 350.030484 111.558396 
L 351.783889 111.259514 
L 353.970179 111.1268 
L 358.338387 110.949524 
L 360.966308 110.57129 
L 361.399194 110.216505 
L 361.840824 109.455557 
L 362.278082 108.223663 
L 362.710968 107.358103 
L 363.148226 106.936961 
L 364.901631 106.33524 
L 367.087921 105.795455 
L 369.274211 105.618528 
L 371.893387 105.323914 
L 374.516935 104.980631 
L 376.265968 104.620139 
L 378.015 104.265822 
L 380.20129 103.700505 
L 381.950323 103.167698 
L 382.824839 102.934571 
L 383.703727 102.581981 
L 385.45276 102.356732 
L 386.327276 100.156275 
L 386.760161 99.57848 
L 387.201792 99.298962 
L 388.076308 98.918581 
L 389.82534 98.111753 
L 390.695484 97.552153 
L 391.57 97.015795 
L 392.881774 95.873543 
L 395.072437 93.73181 
L 396.384211 92.085406 
L 398.566129 89.433572 
L 399.003387 88.653906 
L 399.882276 87.716122 
L 401.19405 86.516331 
L 403.38034 83.900569 
L 404.692115 82.316011 
L 408.190179 77.945101 
L 409.064695 76.462549 
L 409.939211 75.452143 
L 410.372097 75.088677 
L 412.56276 72.456035 
L 413.437276 71.83194 
L 413.870161 71.254567 
L 414.311792 71.030597 
L 415.623566 70.831652 
L 416.930968 70.426953 
L 418.242742 69.81076 
L 418.68 69.555385 
L 418.68 69.555385 
" style="fill:none;stroke:#1f77b4;stroke-dasharray:5.55,2.4;stroke-dashoffset:0;stroke-width:1.5;"/>
   </g>
   <g id="line2d_68">
    <path clip-path="url(#p2042399889)" d="M 310.24 180.174545 
L 310.672885 180.109567 
L 311.114516 179.606021 
L 311.989032 173.107934 
L 312.42629 171.545458 
L 313.300806 167.263534 
L 314.175323 164.016103 
L 315.045466 161.956313 
L 321.171452 151.508158 
L 324.232258 147.121246 
L 325.976918 144.911694 
L 327.293065 143.717014 
L 332.102903 139.96655 
L 332.977419 138.758365 
L 334.722079 136.062866 
L 335.600968 135.180943 
L 336.475484 134.674373 
L 337.345627 134.266768 
L 338.224516 133.535684 
L 339.09466 132.351175 
L 339.969176 130.613166 
L 341.285323 127.11312 
L 345.653531 114.397003 
L 347.844194 108.710669 
L 349.593226 103.86823 
L 351.342258 99.758297 
L 353.528548 95.009929 
L 357.026613 87.952282 
L 359.642958 83.211249 
L 360.95472 81.543038 
L 362.703751 79.611394 
L 364.015519 77.990275 
L 365.327287 76.344741 
L 367.07637 73.397299 
L 367.950869 71.308854 
L 370.137175 65.732871 
L 372.323435 60.816782 
L 373.635242 56.578363 
L 376.258719 47.543268 
L 377.57048 44.21187 
L 378.882286 41.316988 
L 382.380346 34.393575 
L 384.129382 30.569101 
L 385.878418 27.530213 
L 388.501887 21.265455 
L 388.501887 21.265455 
" style="fill:none;stroke:#ff7f0e;stroke-dasharray:5.55,2.4;stroke-dashoffset:0;stroke-width:1.5;"/>
   </g>
   <g id="patch_21">
    <path d="M 310.24 188.12 
L 310.24 13.32 
" style="fill:none;stroke:#000000;stroke-linecap:square;stroke-linejoin:miter;stroke-width:0.8;"/>
   </g>
   <g id="patch_22">
    <path d="M 418.68 188.12 
L 418.68 13.32 
" style="fill:none;stroke:#000000;stroke-linecap:square;stroke-linejoin:miter;stroke-width:0.8;"/>
   </g>
   <g id="patch_23">
    <path d="M 310.24 188.12 
L 418.68 188.12 
" style="fill:none;stroke:#000000;stroke-linecap:square;stroke-linejoin:miter;stroke-width:0.8;"/>
   </g>
   <g id="patch_24">
    <path d="M 310.24 13.32 
L 418.68 13.32 
" style="fill:none;stroke:#000000;stroke-linecap:square;stroke-linejoin:miter;stroke-width:0.8;"/>
   </g>
  </g>
 </g>
 <defs>
  <clipPath id="p5d24d30287">
   <rect height="174.8" width="108.44" x="39.94" y="13.32"/>
  </clipPath>
  <clipPath id="p21559a0c55">
   <rect height="174.8" width="108.44" x="175.09" y="13.32"/>
  </clipPath>
  <clipPath id="p2042399889">
   <rect height="174.8" width="108.44" x="310.24" y="13.32"/>
  </clipPath>
 </defs>
</svg>
